<?xml version="1.0" encoding="UTF-8" standalone="no"?>
<!DOCTYPE svg PUBLIC "-//W3C//DTD SVG 1.1//EN" "http://www.w3.org/Graphics/SVG/1.1/DTD/svg11.dtd">
<!-- Created with Vectornator (http://vectornator.io/) -->
<svg height="100%" stroke-miterlimit="10" style="fill-rule:nonzero;clip-rule:evenodd;stroke-linecap:round;stroke-linejoin:round;" version="1.1" viewBox="0 0 841.995 595.35" width="100%" xml:space="preserve" xmlns="http://www.w3.org/2000/svg" xmlns:vectornator="http://vectornator.io" xmlns:xlink="http://www.w3.org/1999/xlink">
<defs/>
<g id="Layer-1" vectornator:layerName="Layer 1">
<path d="M310.107 98.4738C297.138 111.443 282.415 122.466 267.16 132.637C263.515 135.066 259.666 137.173 255.935 139.469C255.315 139.85 254.213 139.755 253.983 140.445C253.82 140.933 254.967 140.749 255.447 140.933C257.082 141.562 258.721 142.187 260.327 142.885C262.463 143.814 264.621 144.709 266.672 145.814C272.881 149.157 285.09 156.465 291.074 160.455C296.496 164.07 301.227 169.239 308.155 169.239" fill="none" opacity="1" stroke="#ffffff" stroke-linecap="round" stroke-linejoin="round" stroke-opacity="0.995495" stroke-width="10.4289" vectornator:layerName="Curve 2"/>
<path d="M366.247 98.4738C378.896 111.443 393.254 122.466 408.131 132.637C411.686 135.066 415.44 137.173 419.078 139.469C419.683 139.85 420.758 139.755 420.982 140.445C421.141 140.933 420.023 140.749 419.554 140.933C417.96 141.562 416.362 142.187 414.795 142.885C412.712 143.814 410.607 144.709 408.607 145.814C402.552 149.157 390.645 156.465 384.81 160.455C379.522 164.07 374.908 169.239 368.151 169.239" fill="none" opacity="1" stroke="#ffffff" stroke-linecap="round" stroke-linejoin="round" stroke-opacity="0.995495" stroke-width="10.4289" vectornator:layerName="Curve 1"/>
<path d="M348.278 109.19C342.861 120.022 338.796 131.637 333.711 142.654C331.985 146.394 329.372 151.029 328.199 155.252C327.803 156.678 326.82 159.091 328.199 158.402" fill="none" opacity="1" stroke="#0fc06b" stroke-linecap="round" stroke-linejoin="round" stroke-opacity="0.995495" stroke-width="10.4289" vectornator:layerName="Curve 3"/>
</g>
</svg>
