<?xml version="1.0" encoding="UTF-8" standalone="no"?>
<!DOCTYPE svg PUBLIC "-//W3C//DTD SVG 1.1//EN" "http://www.w3.org/Graphics/SVG/1.1/DTD/svg11.dtd">
<!-- Created with Vectornator (http://vectornator.io/) -->
<svg height="100%" stroke-miterlimit="10" style="fill-rule:nonzero;clip-rule:evenodd;stroke-linecap:round;stroke-linejoin:round;" version="1.1" viewBox="0 0 841.995 595.35" width="100%" xml:space="preserve" xmlns="http://www.w3.org/2000/svg" xmlns:vectornator="http://vectornator.io" xmlns:xlink="http://www.w3.org/1999/xlink">
<defs/>
<g id="Layer-1" vectornator:layerName="Layer 1">
<path d="M177.928 157.697C175.743 158.425 174.443 159.992 173.242 161.914C167.791 170.636 176.017 174.19 178.865 181.593C180.218 185.111 180.508 189.137 180.739 192.839C181.095 198.541 180.998 206.532 176.991 211.112C175.897 212.362 174.624 215.313 173.242 214.392C171.487 213.222 176.515 211.105 177.928 212.518C179.598 214.188 181.392 218.695 182.145 220.952C183.178 224.051 183.576 227.55 185.425 230.323C189.819 236.914 203.667 237.685 209.79 233.603" fill="none" opacity="1" stroke="#0fc06b" stroke-linecap="round" stroke-linejoin="round" stroke-width="10.2133" vectornator:layerName="Curve 1"/>
<path d="M272.108 136.611C266.764 136.611 280.255 130.46 281.948 134.269C282.902 136.414 281.887 138.985 281.479 141.297C280.384 147.504 278.308 153.119 283.354 158.165C285.607 160.418 288.889 162.395 292.256 161.914C292.524 161.875 295.119 161.227 295.536 160.976C296.206 160.575 296.942 158.321 296.942 159.102C296.942 160.542 296.135 161.885 296.005 163.319C295.573 168.07 296.136 173.126 296.473 177.845C296.985 185.004 299.373 192.669 297.41 199.867C296.306 203.914 294.001 208.362 291.319 211.581C289.909 213.274 285.145 216.39 288.039 212.049" fill="none" opacity="1" stroke="#0fc06b" stroke-linecap="round" stroke-linejoin="round" stroke-width="10.2133" vectornator:layerName="Curve 2"/>
<path d="M214.007 210.878C220.533 208.359 223.163 198.19 226.189 192.37C230.217 184.625 235.204 177.504 239.309 169.879C241.835 165.187 245.006 160.853 247.743 156.291C248.614 154.839 249.44 153.688 250.086 152.074C250.398 151.293 251.864 149.731 251.023 149.731C250.255 149.731 248.505 153.435 248.212 153.948C246.083 157.673 244.035 161.619 241.652 165.194C238.21 170.356 235.742 175.933 232.281 181.125C228.913 186.176 224.673 190.717 221.972 196.118C220.165 199.733 218.234 204.069 215.881 207.364C215.1 208.457 214.205 209.477 213.538 210.644C213.259 211.133 212.161 212.401 212.601 212.049C213.808 211.084 212.812 211.339 214.007 210.878Z" fill="none" opacity="1" stroke="#ffffff" stroke-linecap="round" stroke-linejoin="round" stroke-width="10.2133" vectornator:layerName="Curve 3"/>
</g>
</svg>
