<?xml version="1.0" encoding="UTF-8" standalone="no"?>
<!DOCTYPE svg PUBLIC "-//W3C//DTD SVG 1.1//EN" "http://www.w3.org/Graphics/SVG/1.1/DTD/svg11.dtd">
<!-- Created with Vectornator (http://vectornator.io/) -->
<svg height="100%" stroke-miterlimit="10" style="fill-rule:nonzero;clip-rule:evenodd;stroke-linecap:round;stroke-linejoin:round;" version="1.1" viewBox="0 0 841.995 595.35" width="100%" xml:space="preserve" xmlns="http://www.w3.org/2000/svg" xmlns:vectornator="http://vectornator.io" xmlns:xlink="http://www.w3.org/1999/xlink">
<defs/>
<g id="Layer-1" vectornator:layerName="Layer 1">
<path d="M164.861 184.744C160.194 187.777 169.473 227.76 170.868 232.22C173.482 240.573 174.482 249.076 179.38 256.613C193.77 278.758 228.128 268.406 248.458 261.693C270.014 254.575 264.754 217.103 259.56 199.711C258.628 196.59 250.835 169.797 254.781 170.634" fill="none" opacity="1" stroke="#ffffff" stroke-linecap="round" stroke-linejoin="round" stroke-opacity="0.995495" stroke-width="10" vectornator:layerName="Curve 1"/>
<path d="M261.596 188.508C273.102 177.269 301.997 184.169 308.097 198.378C319.278 224.422 286.253 242.337 265.152 237.859" fill="none" opacity="1" stroke="#ffffff" stroke-linecap="round" stroke-linejoin="round" stroke-opacity="0.995495" stroke-width="10" vectornator:layerName="Curve 2"/>
<path d="M175.744 286.642C211.246 294.177 249.742 287.678 281.156 267.264" fill="none" opacity="1" stroke="#ffffff" stroke-linecap="round" stroke-linejoin="round" stroke-opacity="0.995495" stroke-width="10" vectornator:layerName="Curve 3"/>
<path d="M165.347 186.149C165.134 185.271 172.678 187.704 174.783 187.5C183.181 186.689 191.281 185.144 199.58 183.847C208.845 182.398 247.038 169.959 252.815 171.284" fill="none" opacity="1" stroke="#ffffff" stroke-linecap="round" stroke-linejoin="round" stroke-opacity="0.995495" stroke-width="10" vectornator:layerName="Curve 4"/>
<path d="M176.844 111.224C174.456 107.415 167.612 118.66 170.541 122.773C171.951 124.753 178.127 127.108 178.352 129.437C178.475 130.708 175.43 138.475 175.457 138.519C176.962 140.92 180.593 141.754 181.252 145.127C181.775 147.809 180.286 151.233 179.305 153.614C179.205 153.858 178.958 154.185 179.128 154.386C180.363 155.846 189.353 158.877 183.797 162.36" fill="none" opacity="1" stroke="#10c06c" stroke-linecap="round" stroke-linejoin="round" stroke-width="10" vectornator:layerName="Curve 5"/>
<path d="M206.061 107.772C205.536 105.607 203.144 110.318 202.95 110.713C201.316 114.04 199.805 118.96 201.453 122.552C203.183 126.321 208.759 125.547 209.948 129.779C210.877 133.086 207.76 136.61 208.419 139.987C208.808 141.976 210.523 143.112 211.393 144.73C213.438 148.533 212.284 154.8 209.928 158.2" fill="none" opacity="1" stroke="#10c06c" stroke-linecap="round" stroke-linejoin="round" stroke-width="10" vectornator:layerName="Curve 6"/>
<path d="M229.251 100.501C225.92 99.7373 222.658 109.598 222.948 112.05C223.443 116.244 229.361 119.077 231.032 122.838C232.591 126.347 230.448 130.907 230.009 134.38C229.584 137.748 230.836 141.008 230.972 144.347C231.142 148.509 229.922 152.47 229.001 156.483" fill="none" opacity="1" stroke="#10c06c" stroke-linecap="round" stroke-linejoin="round" stroke-width="10" vectornator:layerName="Curve 7"/>
</g>
</svg>
