<?xml version="1.0" encoding="UTF-8" standalone="no"?>
<!DOCTYPE svg PUBLIC "-//W3C//DTD SVG 1.1//EN" "http://www.w3.org/Graphics/SVG/1.1/DTD/svg11.dtd">
<!-- Created with Vectornator (http://vectornator.io/) -->
<svg height="100%" stroke-miterlimit="10" style="fill-rule:nonzero;clip-rule:evenodd;stroke-linecap:round;stroke-linejoin:round;" version="1.1" viewBox="0 0 841.995 595.35" width="100%" xml:space="preserve" xmlns="http://www.w3.org/2000/svg" xmlns:vectornator="http://vectornator.io" xmlns:xlink="http://www.w3.org/1999/xlink">
<defs/>
<g id="Layer-1" vectornator:layerName="Layer 1">
<path d="M215.232 229.772C227.674 149.098 275.311 101.256 353.491 101.256C431.672 101.256 490.148 162.309 490.148 238.312C490.148 314.316 437.592 368.14 359.412 368.14C281.232 368.14 202.79 310.446 215.232 229.772Z" fill="#ffffff" fill-opacity="0" fill-rule="nonzero" opacity="1" stroke="#0fc06b" stroke-linecap="butt" stroke-linejoin="round" stroke-width="10" vectornator:layerName="Oval 1"/>
<path d="M265.19 140.752C264.499 141.812 269.415 139.87 270.18 144.482C270.86 148.582 268.469 152.508 268.804 156.512C269.187 161.098 270.732 166.482 268.458 171.368C266.735 175.068 263.895 178.072 261.048 180.901C260.794 181.154 256.33 185.937 258.069 183.269C258.415 182.737 259.035 184.163 259.252 184.758C259.804 186.271 259.625 187.85 260.079 189.367C260.77 191.673 263.402 192.253 263.528 194.726C263.735 198.754 261.593 202.635 261.706 206.705C261.716 207.039 261.718 207.609 262.05 207.647C263.197 207.778 262.731 206.111 263.985 206.514C264.79 206.774 264.723 208.404 265.563 208.501C267.655 208.74 270.935 204.601 273.202 204.861C275.796 205.158 274.646 206.52 276.066 207.445C276.942 208.017 278.236 207.361 279.184 207.802C281.031 208.662 278.297 216.981 279.998 216.471C281.035 216.161 288.216 209.842 289.024 212.539C290.164 216.346 284.416 219.552 285.127 222.926C285.542 224.891 293.777 228.78 294.801 233.061C295.379 235.478 293.467 242.006 295.856 243.563C299.299 245.807 307.561 245.668 309.603 249.65C311.181 252.724 307.091 256.492 311.856 257.581C320.767 259.616 320.278 253.364 323.378 247.615C324.882 244.824 327.584 242.652 330.036 240.703C330.76 240.128 332.401 238.717 333.41 238.832C336.121 239.143 342.136 239.014 344.498 240.552C346.952 242.152 344.221 250.451 346.049 250.66C347.348 250.809 351.361 248.311 352.936 249.643C354.243 250.748 354.298 252.928 354.654 254.353C354.735 254.677 354.671 255.364 354.998 255.295C357.432 254.782 359.994 251.945 362.687 251.21C364.232 250.788 375.473 245.585 375.532 245.458C376.548 243.276 373.151 240.995 372.631 239.258C371.547 235.64 371.932 230.733 369.45 227.609C368.176 226.006 365.9 225.327 364.46 223.879C361.391 220.789 359.613 215.857 358.161 211.874C357.057 208.847 360.344 206.148 360.962 203.167C361.449 200.823 359.711 195.4 361.142 193.708C363.893 190.454 369.805 191.215 372.93 193.252C373.378 193.544 374.682 194.995 375.45 194.894C376.191 194.796 376.27 193.462 376.991 193.265C380.814 192.221 386.41 193.166 388.792 188.747C389.553 187.335 391.381 181.903 391.543 180.486C391.581 180.154 390.983 180.121 390.703 179.938C387.414 177.795 389.649 171.103 385.587 169.423C382.311 168.068 380.239 169.076 377.019 169.345C372.718 169.705 369.313 159.989 368.937 157.136C368.698 155.323 369.818 152.557 370.542 151.001C372.924 145.883 377.643 148.857 382.292 146.929C385.202 145.722 387.423 143.871 390.771 143.836C394.449 143.798 399.407 146.878 402.75 145.658C411.286 142.545 414.461 135.166 422.063 130.716" fill="none" opacity="1" stroke="#0fc06b" stroke-linecap="round" stroke-linejoin="round" stroke-width="10" vectornator:layerName="Curve 1"/>
<path d="M257.761 292.466C253.57 287.191 263.919 285.533 266.852 284.028C268.668 283.096 271.343 280.182 273.205 279.789C274.487 279.519 275.654 280.273 276.871 279.306C277.872 278.51 279.011 276.909 280.346 276.544C283.03 275.811 285.555 278.826 288.213 278.798C290.465 278.775 293.335 275.984 295.648 276.941C296.921 277.468 297.35 279.156 298.461 279.971C300.993 281.829 303.645 280.289 306.43 281.334C309.588 282.519 312.016 286.639 314.627 288.591C316.587 290.057 318.927 289.957 320.66 291.087C322.316 292.166 323.463 296.948 325.943 296.205C328.423 295.462 329.126 292.714 331.799 292.362C334.562 291.997 336.329 296.257 339.22 294.565C340.956 293.549 341.972 291.527 343.74 290.568C345.547 289.589 348.142 290.311 349.787 289.003C351.152 287.919 351.605 285.938 352.97 284.854C354.309 283.79 356.216 285.491 357.476 284.918C359.282 284.098 360.065 280.586 362.098 280.03C364.294 279.431 365.795 280.666 365.853 282.717C366.171 294.099 360.529 305.434 348.982 307.869C347.138 308.258 347.671 311.966 345.799 312.019C343.435 312.085 341.793 309.228 339.269 309.917C337.702 310.345 336.78 312.42 334.902 312.577C332.491 312.779 330.443 310.656 327.876 310.87C325.791 311.045 323.877 314.024 322.121 313.823C320.146 313.597 318.824 308.866 317.234 309.201C316.579 309.339 316.803 310.958 316.139 310.882C314.802 310.729 314.707 309.589 313.618 309.239C310.561 308.255 305.339 308.98 303.18 305.788C298.914 299.481 302.709 303.477 297.197 302.847C294.856 302.579 297.18 299.337 295.874 298.633C294.301 297.784 289.783 297.729 288.198 298.657C283.204 301.58 285.368 306.872 283.41 308.942C282.609 309.79 281.01 309.165 280.087 310.368C279.597 311.006 279.741 312.585 278.941 312.493C278.477 312.44 276.728 310.761 275.976 310.8C275.131 310.843 274.781 312.675 273.989 312.378C272.983 312.001 272.296 309.951 271.177 309.348C258.54 302.536 273.198 301.895 276.512 298.223C278.21 296.342 279.326 292.077 276.487 290.547C273.563 288.97 271.935 294.088 270.682 293.945C270.002 293.867 266.932 291.537 265.591 291.105C263.719 290.503 262.992 292.869 261.326 292.874C259.377 292.88 258.024 292.797 257.761 292.466Z" fill="none" opacity="1" stroke="#0fc06b" stroke-linecap="round" stroke-linejoin="round" stroke-width="10" vectornator:layerName="Curve 2"/>
<path d="M471.552 171.586C462.172 170.512 455.131 179.223 448.089 183.345C445.241 185.012 446.545 179.207 444.334 180.659C442.193 182.063 440.39 185.743 438.566 187.672C438.196 188.064 437.934 189.255 437.522 188.907C436.214 187.801 438.765 184.579 435.702 185.087C433.828 185.398 423.433 196.152 424.371 197.332C425.198 198.372 430.63 195.715 431.003 198.542C431.575 202.877 425.797 208.051 426.011 210.61C426.051 211.081 427.046 210.808 427.297 211.208C428.375 212.924 427.018 217.217 426.43 218.782C425.571 221.074 420.749 225.791 417.939 225.935C415.841 226.043 415.429 225.118 413.381 226.317C412.192 227.013 411.518 228.397 410.351 229.13C409.27 229.809 407.684 229.332 406.634 230.058C405.289 230.988 399.136 244.069 400.343 245.588C400.551 245.85 400.611 244.566 400.891 244.748C402.27 245.647 399.795 250.018 400.673 250.591C401.028 250.822 401.442 249.444 401.667 249.802C403.178 252.209 400.655 259.676 403.065 261.246C403.737 261.684 407.25 264.999 408.055 264.977C415.618 264.765 420.951 256.589 425.777 252.109C427.13 250.853 429.452 251.621 430.882 250.888C432.05 250.288 432.545 247.506 433.568 247.133C435.641 246.377 435.302 249.262 436.878 249.768C439.564 250.633 441.715 248.487 444.261 248.356C446.337 248.25 447.001 251.216 448.462 251.094C449.956 250.969 451.075 249.41 452.726 249.325C455.171 249.2 462.612 251.084 463.012 254.113C463.768 259.849 458.814 264.053 454.354 266.663C450.038 269.189 446.887 272.711 442.144 274.745C435.168 277.738 426.29 278.028 420.477 282.648C418.597 284.141 401.979 284.246 405.595 290.424C405.603 290.437 409.831 291.31 409.999 291.379C416.18 293.936 423.024 293.323 429.348 295.85C433.003 297.31 432.629 299.362 434.477 302.305C435.898 304.566 436.562 300.852 437.736 305.386C438.723 309.2 437.949 313.644 439.529 317.327C441.944 322.956 448.749 328.179 449.431 333.355" fill="none" opacity="1" stroke="#0fc06b" stroke-linecap="round" stroke-linejoin="round" stroke-width="10" vectornator:layerName="Curve 3"/>
<path d="M359.999 361.489C359.038 360.863 357.398 360.366 356.588 359.745C354.054 357.801 358.834 351.074 360.434 349.803C362.417 348.227 364.409 350.289 366.43 348.684C367.898 347.517 371.276 339.001 372.452 339.442C373.884 339.98 374.296 343.466 376.602 342.625C379.082 341.721 381.541 333.918 385.042 335.918C389.45 338.434 396.816 343.774 402.405 341.967C404.027 341.443 405.082 339.53 406.772 339.307C409.842 338.902 409.679 343.984 411.01 345.66C412.443 347.463 415.975 346.679 418.088 346.921" fill="none" opacity="1" stroke="#0fc06b" stroke-linecap="round" stroke-linejoin="round" stroke-width="10" vectornator:layerName="Curve 4"/>
</g>
</svg>
