<?xml version="1.0" encoding="UTF-8" standalone="no"?>
<!DOCTYPE svg PUBLIC "-//W3C//DTD SVG 1.1//EN" "http://www.w3.org/Graphics/SVG/1.1/DTD/svg11.dtd">
<!-- Created with Vectornator (http://vectornator.io/) -->
<svg height="100%" stroke-miterlimit="10" style="fill-rule:nonzero;clip-rule:evenodd;stroke-linecap:round;stroke-linejoin:round;" version="1.1" viewBox="0 0 841.995 595.35" width="100%" xml:space="preserve" xmlns="http://www.w3.org/2000/svg" xmlns:vectornator="http://vectornator.io" xmlns:xlink="http://www.w3.org/1999/xlink">
<defs/>
<g id="Layer-1" vectornator:layerName="Layer 1">
<path d="M146.37 186.047C146.621 185.544 146.266 189.936 149.493 191.177C150.247 191.467 152.975 190.919 153.284 191.846C153.902 193.7 152.667 196.804 154.177 198.314C155.58 199.718 159.431 197.666 160.199 200.544C160.635 202.18 159.42 207.111 161.537 207.905C162.827 208.389 164.956 207.495 166.221 208.128C167.502 208.769 166.564 212.366 167.559 212.366C168.827 212.366 171.131 209.246 172.466 210.581C173.72 211.835 172.149 216.254 173.581 216.827C175.269 217.502 177.55 214.542 178.934 216.158C180.137 217.56 179.253 219.709 179.604 221.288C180.152 223.754 182.109 222.289 183.618 223.295C185.115 224.293 184.146 226.868 185.626 227.756C186.466 228.26 187.53 227.593 188.302 227.979C189.333 228.494 189.574 230.012 190.756 230.209C190.976 230.246 191.221 230.3 191.425 230.209C192.504 229.73 195.028 226.686 196.332 228.425C197.34 229.769 196.347 232.229 197.67 233.332C199.583 234.926 201.868 234.995 203.692 237.124C204.718 238.321 204.909 241.077 206.369 241.808C207.678 242.462 208.601 241.846 209.715 243.146C210.896 244.525 211.451 246.25 212.614 247.607C213.557 248.707 215.027 248.904 215.96 249.837C216.942 250.82 216.681 252.966 217.744 253.852C218.798 254.73 220.979 254.373 222.205 255.19C223.412 255.995 222.582 258.062 223.766 258.536C224.785 258.944 228.008 256.315 228.673 258.09C229.327 259.832 227.007 260.91 227.335 262.551C227.635 264.051 232.228 261.623 233.134 261.882C234.067 262.148 234.047 264.865 234.472 265.45C235.551 266.934 238.649 267.539 240.272 268.35" fill="none" opacity="1" stroke="#ffffff" stroke-linecap="round" stroke-linejoin="round" stroke-opacity="0.995495" stroke-width="7.25023" vectornator:layerName="Curve 1"/>
<path d="M214.175 139.43C213.649 140.132 213.366 140.398 213.06 141.215C211.901 144.306 215.982 141.9 217.521 142.999C219.33 144.291 217.521 147.85 217.521 149.467C217.521 150.492 220.882 150.83 221.536 151.921C222.559 153.625 220.721 158.243 221.759 159.281C222.425 159.947 224.035 159.239 224.435 160.173C225.334 162.269 223.7 164.37 224.212 166.419C224.429 167.286 225.724 167.113 226.22 167.98C227.337 169.935 227.058 172.556 228.004 174.448C228.688 175.817 231.523 173.999 232.019 176.233C232.397 177.932 230.787 180.46 231.573 182.032C232.468 183.821 234.986 183.127 235.811 185.601C236.347 187.209 236.002 188.915 236.48 190.507C237.997 195.563 240.783 200.653 243.394 205.005C244.021 206.05 243.711 208.01 244.063 209.243C244.826 211.912 247.293 211.332 247.409 212.143C247.679 214.035 245.52 216.078 245.848 217.719C246.08 218.883 248.7 217.659 248.97 219.28C249.116 220.152 248.502 221.935 249.193 222.626C249.887 223.32 250.794 222.899 250.978 224.187C251.193 225.694 250.022 227.217 250.309 228.648C250.554 229.875 251.816 231.05 252.316 232.217C253.167 234.202 251.911 236.131 252.539 238.016C253.239 240.117 253.91 241.109 254.323 243.592C254.576 245.105 256.776 244.26 257.446 245.376C258.605 247.308 257.181 251.459 259.676 252.291" fill="none" opacity="1" stroke="#ffffff" stroke-linecap="round" stroke-linejoin="round" stroke-opacity="0.995495" stroke-width="7.25023" vectornator:layerName="Curve 2"/>
<path d="M244.063 268.573C245.799 268.284 249.103 266.871 250.755 267.904C251.6 268.432 250.659 270.58 251.647 270.58C253.52 270.58 255.269 269.254 257.223 269.688C259.083 270.102 256.477 275.487 263.022 275.487" fill="none" opacity="1" stroke="#ffffff" stroke-linecap="round" stroke-linejoin="round" stroke-opacity="0.995495" stroke-width="7.25023" vectornator:layerName="Curve 3"/>
<path d="M263.022 254.744C261.282 254.744 261.181 259.201 261.461 260.32C262.131 262.999 263.983 261.02 265.03 262.328C266.086 263.648 265.03 267.08 265.03 268.573C265.03 269.257 266.058 269.618 266.368 270.134C267.176 271.481 267.002 273.981 266.814 275.487C266.798 275.614 265.97 277.543 265.922 277.495C265.696 277.269 266.089 276.322 266.145 276.156" fill="none" opacity="1" stroke="#ffffff" stroke-linecap="round" stroke-linejoin="round" stroke-opacity="0.995495" stroke-width="7.25023" vectornator:layerName="Curve 4"/>
<path d="M148.238 182.59C149.814 182.187 151.812 183.388 153.394 182.734C154.833 182.139 154.541 180.308 155.094 179.374C155.87 178.066 157.517 179.272 158.527 178.496C160.224 177.192 160.046 174.664 161.592 173.324C163.367 171.786 163.668 174.256 165.032 173.907C165.864 173.694 166.328 172.065 166.996 171.577C167.995 170.847 169.755 171.824 170.947 171.298C172.522 170.603 172.828 168.742 174.021 167.586C175.44 166.212 176.118 167.64 177.541 167.052C179.989 166.039 180.694 162.223 183.264 160.834C184.649 160.086 184.859 161.673 186.186 160.819C187.785 159.789 188.494 158.051 190.377 157.187C192.401 156.259 195.028 157.041 196.986 155.863C198.558 154.917 203.489 152.683 204.609 151.354C205.768 149.978 206.012 147.976 207.419 146.613C208.705 145.367 210.122 146.368 211.45 145.217" fill="none" opacity="1" stroke="#ffffff" stroke-linecap="round" stroke-linejoin="round" stroke-opacity="0.995495" stroke-width="7.25023" vectornator:layerName="Curve 5"/>
<path d="M162.164 199.872C167.68 198.461 165.517 196.119 168.662 193.822C170.468 192.503 172.781 195.483 174.417 193.448C175.003 192.718 176.31 186.795 177.132 186.903C177.941 187.009 179.371 188.925 180.404 188.26C181.86 187.323 182.588 182.948 183.725 182.657C185.342 182.244 186.519 186.316 188.291 184.781C188.745 184.387 190.622 179.465 191.013 179.696C192.513 180.586 192.068 182.354 194.205 182.171C196.58 181.968 196.078 178.497 198.133 177.51C200.185 176.525 201.661 177.541 203.449 175.419C204.148 174.59 205.007 172.461 206.267 172.139C207.266 171.884 209.477 173.137 210.394 172.547C211.87 171.596 211.546 168.638 212.342 167.295C212.883 166.381 214.647 168.899 215.614 168.652C217.222 168.241 216.786 165.733 217.57 164.861C218.532 163.791 221.228 163.997 222.543 162.858" fill="none" opacity="1" stroke="#ffffff" stroke-linecap="round" stroke-linejoin="round" stroke-opacity="0.995495" stroke-width="7.25023" vectornator:layerName="Curve 6"/>
<path d="M144.377 182.882C141.51 185.682 138.366 180.305 137.936 178.962C137.502 177.605 133.525 177.44 132.747 175.837C132.355 175.029 133.772 174.448 134.324 174.534C134.725 174.596 135.563 175.544 135.338 175.207C134.302 173.653 130.475 170.362 131.096 168.189C131.306 167.453 133.725 169.136 133.375 168.456C132.783 167.305 129.315 164.162 129.778 162.827C130.19 161.636 132.828 162.929 132.679 161.3C132.427 158.544 129.778 156.079 131.273 153.174C132.55 150.695 134.441 153.971 135.239 153.101C136.499 151.725 135.128 149.51 136.019 148.064C137.192 146.161 140.975 149.042 142.148 147.897C142.849 147.212 141.86 145.209 142.791 144.3C143.53 143.578 145.723 145.849 146.554 146.087C147.593 146.383 150.015 144.438 149.65 143.3" fill="none" opacity="1" stroke="#0fc06b" stroke-linecap="round" stroke-linejoin="round" stroke-width="7.25023" vectornator:layerName="Curve 7"/>
<path d="M128.929 171.534C125.934 172.072 123.815 173.095 120.816 171.79C120.049 171.456 118.225 170.773 118.856 170.222C119.532 169.632 122.275 170.974 121.538 170.461C118.045 168.031 113.021 166.922 110.612 163.063C110.049 162.161 110.712 160.581 111.233 159.833C111.534 159.399 112.755 159.349 112.502 158.885C111.755 157.515 104.674 155.757 107.532 152.578C108.237 151.793 110.233 151.327 110.768 150.558C111.498 149.509 105.045 143.483 105.828 140.407C106.189 138.986 107.837 138.399 109.106 138.619C109.838 138.745 111.183 140.19 111.174 139.448C111.144 137.021 107.808 135.973 107.723 133.588C107.636 131.125 111.957 130.365 112.003 128.021C112.042 126.064 108.559 122.738 109.971 120.707C110.946 119.306 115.411 121.678 115.866 120.13C116.671 117.393 112.845 113.068 114.43 110.789C115.99 108.547 121.37 108.961 122.34 106.731C123.38 104.341 121.456 101.573 123.372 99.1071C124.835 97.2237 128.023 98.8554 129.44 96.8186C131.091 94.4462 128.467 91.5379 129.965 89.046C131.19 87.0091 134.031 89.8775 134.972 88.8675C136.261 87.4834 134.375 85.0469 135.449 83.503C136.38 82.1642 139.457 83.2735 140.796 82.5437C141.768 82.0134 141.516 80.0852 142.62 79.337C144.811 77.8514 147.255 79.9451 149.612 79.5222" fill="none" opacity="1" stroke="#0fc06b" stroke-linecap="round" stroke-linejoin="round" stroke-width="7.25023" vectornator:layerName="Curve 8"/>
<path d="M151.745 79.3793C149.456 77.7866 152.995 75.0385 154.839 75.2249C155.952 75.3374 157.124 76.8147 157.664 77.5974C157.849 77.8645 157.804 78.6797 158.064 78.4856C159.311 77.5545 158.129 75.4271 159.995 74.5398C161.879 73.644 162.515 75.5627 163.542 75.5831C164.581 75.6037 166.361 73.2741 168.298 74.0098C168.689 74.1581 168.776 75.2655 169.437 75.0053C170.048 74.7648 171.197 71.9576 172.125 72.6033C173.051 73.2474 172.983 75.4139 173.913 75.8817C174.884 76.3702 177.043 74.2538 178.521 74.8151C181.902 76.0988 181.932 80.2585 179.855 82.2539" fill="none" opacity="1" stroke="#0fc06b" stroke-linecap="round" stroke-linejoin="round" stroke-width="7.25023" vectornator:layerName="Curve 9"/>
<path d="M183.086 82.874C183.763 80.5723 188.696 80.4545 189.953 82.3618C190.552 83.2722 190.64 85.0597 190.62 86.0813C190.616 86.2573 190.37 86.7324 190.471 86.5879C191.535 85.0587 193.927 82.3174 195.502 85.2054C196.423 86.8941 195.807 89.2363 196.503 90.7845C196.575 90.9451 196.779 90.5655 196.926 90.4686C198.331 89.5432 200.489 88.7341 201.51 90.606C202.109 91.7052 201.819 94.702 202.618 95.4461C203.22 96.0062 204.049 94.0398 204.818 94.3316C206.842 95.1003 205.775 99.2615 206.683 100.715C207.224 101.583 208.716 100.023 209.49 101.651C211.099 105.035 210.895 110.9 209.716 113.608C209.456 114.205 210.391 115.118 210.556 115.617C211.195 117.549 211.053 119.331 210.353 121.172C209.505 123.406 218.595 137.45 212.975 138.458" fill="none" opacity="1" stroke="#0fc06b" stroke-linecap="round" stroke-linejoin="round" stroke-width="7.25023" vectornator:layerName="Curve 10"/>
<path d="M153.5 142.651C151.165 144.394 153.158 139.115 155.306 138.008C156.74 137.269 157.637 138.719 158.263 138.437C158.862 138.168 159.051 136.267 159.705 135.779C161.731 134.267 166.909 135.016 168.563 132.99C170.465 130.66 167.811 128.643 168.641 126.737C169.296 125.232 171.699 126.988 172.867 126.219C174.247 125.31 172.926 122.995 173.827 122.207C175.109 121.088 178.708 123.216 180.354 122.476C181.527 121.948 180.489 120.597 181.099 119.943C182.325 118.626 185.405 121.21 186.738 120.611C188.014 120.037 186.757 115.193 188.21 114.108C189.694 113 192.586 117.162 194.457 116.826C195.576 116.625 194.909 114.236 196.281 113.619C201.592 111.232 205.846 113.437 206.872 119.157" fill="none" opacity="1" stroke="#0fc06b" stroke-linecap="round" stroke-linejoin="round" stroke-width="7.25023" vectornator:layerName="Curve 11"/>
<path d="M147.17 139.468C140.947 136.759 147.462 133.462 146.914 131.355C146.609 130.18 143.526 126.284 144.352 125.096C145.543 123.384 148.734 125.583 148.393 122.212C148.298 121.269 146.216 115.692 146.635 115.089C147.603 113.698 152.015 115.196 152.089 113.39C152.163 111.607 150.229 109.598 150.623 107.895C151.037 106.106 155.335 107.563 156.268 105.922C157.349 104.022 154.617 100.861 156.03 99.2461C157.273 97.8244 160.166 99.2997 161.377 98.2868C162.888 97.0224 160.944 93.7587 162.784 92.7555C163.884 92.1554 165.64 93.8446 166.479 93.2921C168.502 91.96 166.931 88.3549 169.704 87.1946C170.531 86.8489 172.971 88.444 173.209 88.0055C174.618 85.4085 173.652 80.3793 179.259 84.2805" fill="none" opacity="1" stroke="#0fc06b" stroke-linecap="round" stroke-linejoin="round" stroke-width="7.25023" vectornator:layerName="Curve 12"/>
</g>
</svg>
