<?xml version="1.0" encoding="UTF-8" standalone="no"?>
<!DOCTYPE svg PUBLIC "-//W3C//DTD SVG 1.1//EN" "http://www.w3.org/Graphics/SVG/1.1/DTD/svg11.dtd">
<!-- Created with Vectornator (http://vectornator.io/) -->
<svg height="100%" stroke-miterlimit="10" style="fill-rule:nonzero;clip-rule:evenodd;stroke-linecap:round;stroke-linejoin:round;" version="1.1" viewBox="0 0 841.995 595.35" width="100%" xml:space="preserve" xmlns="http://www.w3.org/2000/svg" xmlns:vectornator="http://vectornator.io" xmlns:xlink="http://www.w3.org/1999/xlink">
<defs/>
<g id="Layer-1" vectornator:layerName="Layer 1">
<path d="M226.465 127.28C226.465 146.185 231.416 164.862 234.93 183.306C235.463 186.106 235.84 188.936 236.139 191.771C236.575 195.915 236.353 200.103 236.542 204.266C236.591 205.348 236.837 206.412 236.945 207.49C236.972 207.758 236.945 208.565 236.945 208.296C236.945 207.49 236.945 206.684 236.945 205.878" fill="none" opacity="1" stroke="#0fc06b" stroke-linecap="round" stroke-linejoin="round" stroke-width="10" vectornator:layerName="Curve 23"/>
<path d="M225.256 126.071C223.854 126.539 228.228 126.293 229.69 126.071C232.66 125.621 235.606 125.021 238.557 124.459C250.232 122.235 261.882 119.849 273.624 118.01C297.4 114.286 321.446 110.452 345.369 107.933C348.458 107.608 359.77 105.488 363.104 106.321C368.166 107.587 368.023 128.268 368.344 132.117C369.337 144.039 371.326 157.106 375.196 168.393C377.869 176.188 382.696 182.759 384.063 190.965C384.22 191.905 384.491 195.777 383.66 196.608C379.313 200.955 354.901 200.886 348.997 201.847C339.737 203.355 330.463 204.472 321.185 205.878C299.319 209.191 277.887 215.367 255.889 217.567C251.218 218.034 230.722 225.175 236.945 212.73" fill="none" opacity="1" stroke="#0fc06b" stroke-linecap="round" stroke-linejoin="round" stroke-width="10" vectornator:layerName="Curve 24"/>
<path d="M238.493 223.965C236.305 222.926 239.502 224.428 240.35 225.024C242.402 226.465 244.466 227.917 246.292 229.611C252.981 235.816 259.021 243.413 265.976 249.373C280.704 261.996 303.423 271.981 322.798 275.487" fill="none" opacity="1" stroke="#0fc06b" stroke-linecap="round" stroke-linejoin="round" stroke-width="10" vectornator:layerName="Curve 26"/>
<path d="M330.053 277.22C327.824 276.106 335.893 275.656 336.099 275.608C340.414 274.598 344.694 273.444 348.997 272.384C353.964 271.16 358.951 270.013 363.91 268.756C387.004 262.901 410.312 257.436 433.64 252.633C440.428 251.236 447.368 250.666 454.197 249.812C456.476 249.527 464.842 247.797 463.064 247.797" fill="none" opacity="1" stroke="#0fc06b" stroke-linecap="round" stroke-linejoin="round" stroke-width="10" vectornator:layerName="Curve 27"/>
<path d="M324.813 279.437C327.571 280.63 321.622 278.833 324.007 278.833C324.985 278.833 323.825 279.01 324.813 279.437Z" fill="none" opacity="1" stroke="#0fc06b" stroke-linecap="round" stroke-linejoin="round" stroke-width="10" vectornator:layerName="Curve 28"/>
<path d="M321.185 229.659C323.651 229.659 340.862 225.152 340.936 225.225C342.847 227.137 330.933 231.447 330.456 231.674C329.371 232.191 328.325 232.789 327.231 233.286C326.845 233.462 325.642 233.499 326.022 233.689C329.105 235.231 348.153 225.993 350.206 228.047C351.318 229.159 347.277 229.201 345.772 229.659C343.901 230.228 342.008 230.726 340.129 231.271C335.748 232.543 331.308 233.634 326.828 234.496C325.223 234.804 320.836 236.457 321.991 235.302C326.482 230.811 339.216 229.186 344.966 227.643C347.641 226.926 350.33 226.258 353.027 225.628C354.362 225.317 357.058 223.452 357.058 224.822C357.058 226.225 354.358 225.588 353.027 226.031C350.73 226.797 348.492 227.742 346.175 228.45C343.727 229.198 332.8 231.894 330.456 232.48C328.844 232.883 324.697 235.072 325.619 233.689C326.754 231.987 329.355 232.013 331.262 231.271C334.193 230.131 337.146 229.041 340.129 228.047C345.271 226.333 356.374 223.145 361.492 221.598C363.648 220.946 365.763 220.155 367.941 219.582C368.331 219.48 369.538 219.471 369.15 219.582C357.038 223.043 344.345 225.632 332.068 228.45C328.318 229.31 324.54 230.043 320.782 230.868C319.031 231.252 315.542 233.87 315.542 232.077C315.542 230.093 318.97 230.061 320.782 229.256C323.815 227.908 326.924 226.733 330.053 225.628C340.764 221.848 351.957 218.587 363.104 216.358C365.098 215.959 367.178 215.058 369.15 215.552C370.636 215.923 366.188 216.335 364.716 216.761C361.082 217.813 357.452 218.881 353.834 219.985C344.602 222.802 335.344 225.542 326.022 228.047C321.993 229.129 317.977 230.259 313.93 231.271C312.064 231.738 308.287 234.404 308.287 232.48C308.287 230.483 312.031 231.082 313.93 230.465C317.406 229.335 320.919 228.324 324.41 227.24C334.487 224.113 341.108 221.883 351.415 219.179C356.112 217.947 361.638 218.465 365.522 215.552C366.06 215.148 364.167 215.425 363.507 215.552C360.659 216.099 357.86 216.876 355.043 217.567C350.739 218.623 346.437 219.688 342.145 220.791C329.435 224.06 325.616 225.352 313.124 228.047C310.857 228.536 306.727 231.53 306.272 229.256C305.801 226.899 310.496 226.939 312.721 226.031C317.089 224.248 321.565 222.742 326.022 221.194C335.578 217.877 345.253 214.872 355.043 212.327C357.314 211.737 364.241 210.715 361.895 210.715C353.674 210.715 345.703 213.626 337.711 215.552C331.502 217.048 325.335 218.72 319.17 220.388C313.915 221.81 308.678 223.301 303.451 224.822C301.288 225.451 294.749 226.837 297.001 226.837C303.077 226.837 308.6 223.206 314.333 221.194C325.572 217.251 327.074 216.493 338.114 213.133C340.515 212.402 346.492 213.363 345.369 211.118C344.213 208.806 340.239 211.792 337.711 212.327C333.248 213.271 328.825 214.402 324.41 215.552C314.867 218.035 297.845 220.773 288.94 225.225C287.852 225.769 291.359 224.956 292.568 224.822" fill="none" opacity="1" stroke="#0fc06b" stroke-linecap="round" stroke-linejoin="round" stroke-width="10" vectornator:layerName="Curve 29"/>
<path d="M367.567 218.519C366.9 218.616 365.795 218.175 365.567 218.809C365.363 219.375 366.737 219.175 367.338 219.153C368.738 219.101 370.122 218.834 371.501 218.59C373.469 218.242 375.412 217.767 377.372 217.379C380.497 216.761 386.837 214.56 390.219 215.399C390.455 215.457 389.774 215.61 389.535 215.658C388.318 215.901 387.084 216.059 385.86 216.27C383.685 216.645 381.509 217.013 379.339 217.415C374.035 218.397 368.739 219.423 363.434 220.399C362.875 220.502 361.194 220.664 361.759 220.721C367.707 221.325 377.872 217.482 383.877 216.397C385.865 216.038 387.873 215.792 389.877 215.528C390.925 215.39 393.851 214.523 393.031 215.192C392.161 215.901 390.811 215.531 389.698 215.674C387.483 215.959 385.257 216.157 383.047 216.477C377.516 217.278 372.037 218.414 366.509 219.233C365.188 219.428 363.808 220.02 362.525 219.65C361.753 219.427 363.991 218.982 364.754 218.726C366.374 218.182 368.027 217.739 369.666 217.254C373.168 216.217 376.709 215.291 380.286 214.555C381.4 214.326 382.518 214.116 383.636 213.909C383.857 213.869 384.522 213.863 384.303 213.813C377.944 212.354 369.705 215.279 363.522 216.302C362.161 216.527 358.185 217.206 359.392 216.54C364.984 213.453 372.242 213.084 378.308 211.398C379.906 210.953 381.468 210.387 383.057 209.909C383.784 209.691 385.838 209.793 385.253 209.311C384.568 208.747 383.48 209.412 382.602 209.535C380.757 209.793 378.922 210.118 377.09 210.453C370.971 211.57 364.862 213.404 358.664 214.002C358.098 214.057 359.783 213.8 360.339 213.68C362.023 213.315 363.689 212.873 365.381 212.549C369.754 211.713 374.165 211.091 378.569 210.439C380.398 210.168 382.23 209.912 384.065 209.683C384.892 209.58 387.332 209.147 386.553 209.443C383.663 210.539 380.425 210.271 377.382 210.811C370.631 212.009 363.537 214.389 356.648 214.455C356.494 214.456 356.862 214.217 357.006 214.162C357.895 213.825 358.806 213.544 359.722 213.289C361.398 212.821 363.089 212.406 364.78 211.995C366.936 211.472 375.605 209.483 377.726 209.04C379.058 208.761 380.398 208.514 381.743 208.298C382.07 208.245 383.064 208.268 382.734 208.234C376.043 207.555 367.986 210.444 361.529 211.665C359.699 212.012 357.86 212.317 356.016 212.584C355.635 212.639 354.543 212.846 354.862 212.631C355.881 211.944 360.977 211.045 361.27 210.982C367.649 209.62 374.68 209.005 380.883 207.061C381.199 206.962 380.222 207.106 379.891 207.124C378.46 207.201 377.025 207.208 375.599 207.346C373.152 207.582 370.707 207.855 368.281 208.245C361.513 209.334 354.855 211.025 348.148 212.442C346.04 212.887 343.911 213.23 341.789 213.603C341.347 213.681 340.41 214.243 340.456 213.796C340.481 213.552 344.647 212.509 346.376 212.098C353.732 210.348 361.125 208.514 368.559 207.124C369.884 206.876 371.219 206.408 372.559 206.544C373.485 206.638 370.769 207.057 369.86 207.256C367.857 207.693 365.835 208.041 363.826 208.45C361.531 208.917 359.236 209.389 356.947 209.887C354.086 210.508 351.237 211.186 348.376 211.808C346.087 212.306 343.797 212.798 341.497 213.245C340.836 213.374 340.066 213.895 339.497 213.535C339.001 213.221 340.61 213.147 341.188 213.05C343.455 212.668 345.738 212.39 348.018 212.101C351.007 211.721 354.005 211.42 356.994 211.041C363.989 210.153 372.987 207.845 380.197 208.962C380.391 208.992 380.011 209.361 379.822 209.417C378.056 209.943 376.239 210.28 374.439 210.677C371.479 211.33 368.512 211.954 365.543 212.566C358.323 214.053 351.085 215.533 344.011 217.606C341.501 218.341 337.334 218.409 336.933 220.993C336.689 222.573 340.496 223.188 343.45 223.133C352.299 222.967 360.839 220.064 369.517 218.717C370.774 218.522 372.107 218.072 373.322 218.446C373.767 218.583 373.091 219.442 372.702 219.697C371.149 220.718 369.392 221.395 367.691 222.145C364.748 223.442 361.769 224.657 358.777 225.838C355.039 227.314 351.246 228.649 347.504 230.113C343.71 231.598 339.386 232.366 336.327 235.055C336.107 235.249 336.814 235.479 337.107 235.463C338.953 235.361 340.786 235.051 342.603 234.707C345.869 234.088 349.096 233.281 352.345 232.576C362.484 230.375 372.556 228.313 382.917 227.467C383.954 227.383 385.727 226.463 386.039 227.456C386.338 228.41 384.245 228.361 383.289 228.655C380.62 229.475 377.901 230.121 375.19 230.789C364.679 233.376 354.045 235.662 343.331 237.244C341.735 237.48 340.13 237.793 338.518 237.741C338.3 237.734 338.393 237.196 338.584 237.091C340.165 236.222 341.846 235.525 343.562 234.969C346.612 233.979 349.737 233.236 352.849 232.463C361.975 230.195 371.102 228.264 380.542 228.212C381.305 228.207 382.8 227.68 382.818 228.443C382.837 229.274 381.381 229.335 380.573 229.529C377.99 230.148 375.331 230.389 372.718 230.866C365.278 232.227 357.86 233.709 350.439 235.174C347.921 235.671 345.416 236.235 342.893 236.707C342.567 236.768 341.634 236.966 341.901 236.771C346.348 233.517 355.362 232.723 360.312 231.742C368.288 230.162 372.72 229.28 380.639 228.878C382.494 228.784 389.412 228.783 391.921 229.367C392.611 229.527 393.721 229.673 393.789 230.377C393.897 231.49 388.739 233.437 386.5 234.236C383.765 235.212 380.963 235.986 378.188 236.841C369.658 239.471 361.076 241.935 352.846 245.436C351.204 246.135 349.618 246.957 348.014 247.738C347.396 248.039 344.612 248.86 344.953 250.383C345.325 252.038 348.387 250.778 350.042 250.407C354.952 249.306 359.807 248.21 364.792 247.47C375.881 245.824 387.093 245.02 398.286 245.943C400 246.084 404.148 246.046 405.893 247.043C406.955 247.651 403.796 248.392 402.606 248.681C399.201 249.507 395.709 249.685 392.264 250.258C385.316 251.416 376.304 251.983 370.048 255.558C369.5 255.871 372.525 256.273 372.924 256.343C374.595 256.634 375.931 256.379 377.558 255.992C378.681 255.725 381.041 254.036 380.925 255.184C380.853 255.895 372.442 257.591 371.263 258.145C370.664 258.427 372.591 258.113 373.247 258.018C374.032 257.904 374.805 257.719 375.589 257.598C376.119 257.517 379.47 256.821 380.011 257.719C380.1 257.866 379.947 258.103 379.799 258.19C378.415 258.997 375.331 260.364 373.683 260.197C373.511 260.179 374.024 260.141 374.187 260.084C374.991 259.801 375.767 259.441 376.578 259.177C377.694 258.814 378.834 258.53 379.961 258.207C384.363 256.944 388.808 256.228 393.248 255.121C406.226 251.885 419.341 251.907 432.389 249.733C436.149 249.106 440.463 248.452 444.098 247.637C445.447 247.334 445.377 246.453 446.831 246.6C451.254 247.049 455.179 246.2 459.545 245.92C459.895 245.898 462.985 246.011 463.025 245.617C463.046 245.406 461.938 245.014 461.774 244.997C459.585 244.775 457.544 245.013 455.352 245.166C445.815 245.831 436.076 246.077 426.526 246.017C424.222 246.003 421.918 246.052 419.616 246.137C418.792 246.168 417.969 246.223 417.144 246.215C416.763 246.211 415.894 246.464 416.007 246.099C416.438 244.698 418.785 245.105 420.235 244.886C424.168 244.293 428.054 243.831 432.024 243.619C433.07 243.564 434.115 243.47 435.162 243.445C435.434 243.439 436.186 243.356 435.975 243.528C434.907 244.399 433.223 243.709 431.845 243.765C430.198 243.833 428.55 243.869 426.903 243.921C424.431 243.998 421.959 244.046 419.489 244.154C409.236 244.599 398.965 245.14 388.695 244.969C386.953 244.94 384.87 245.51 383.493 244.441C382.718 243.84 385.146 243.311 386.097 243.063C387.314 242.747 388.547 242.491 389.788 242.288C391.444 242.018 393.117 241.867 394.78 241.646C399.782 240.979 412.072 238.493 416.73 240.589C416.909 240.67 416.401 240.822 416.209 240.865C415.384 241.05 414.543 241.151 413.705 241.267C412.266 241.467 410.822 241.633 409.38 241.814C407.44 242.056 405.499 242.295 403.558 242.537C395.734 243.511 387.925 244.662 380.094 245.574C378.173 245.798 376.038 246.831 374.305 245.972C373.649 245.647 375.381 244.896 376.079 244.674C377.246 244.303 378.443 244.037 379.625 243.72C381.257 243.283 382.88 242.814 384.521 242.411C391.14 240.785 399.451 238.835 406.327 239.533C407.156 239.617 404.663 239.654 403.839 239.773C402.558 239.959 401.275 240.141 400.001 240.369C398.543 240.63 397.092 240.932 395.643 241.24C393.484 241.7 387.022 243.065 389.122 242.385C396.674 239.938 404.409 238.884 412.327 238.664C413.646 238.627 418.173 238.54 419.725 238.594C420.378 238.616 422.313 238.649 421.675 238.792C419.878 239.195 417.714 239.095 415.887 239.19C414.841 239.243 411.769 239.735 412.749 239.364C415.904 238.167 432.626 239.246 421.741 238.142C420.603 238.026 419.465 237.911 418.328 237.795C416.81 237.641 415.279 237.591 413.776 237.333C404.565 235.752 399.116 231.104 391.959 225.757C389.5 223.921 386.714 223.203 383.721 222.786C382.64 222.636 379.764 221.774 380.453 222.619C381.279 223.632 383.054 222.883 384.354 223.015C388.852 223.471 393.349 223.928 397.846 224.384C398.063 224.406 397.414 224.32 397.196 224.318C396.264 224.313 395.332 224.371 394.4 224.363C392.98 224.351 391.56 224.235 390.14 224.259C388.448 224.288 381.369 224.725 379.572 224.829C378.526 224.889 377.48 224.949 376.434 225.003C375.995 225.025 374.774 224.935 375.15 224.708C379.171 222.285 386.34 222.476 390.826 222.358C391.862 222.331 393.131 221.85 393.931 222.509C395.062 223.441 386.428 223.062 388.063 222.077C391.345 220.099 396.787 222.823 399.863 223.932C400.497 224.161 401.125 224.406 401.764 224.618C402.079 224.722 402.9 224.599 402.723 224.879C402.413 225.369 397.135 224.609 396.676 224.594C395.966 224.571 395.255 224.576 394.546 224.542C394.219 224.526 393.245 224.41 393.57 224.443C395.343 224.623 405.251 225.77 405.743 227.485C405.948 228.198 400.678 228.937 399.985 229.2C399.323 229.451 401.391 229.397 402.098 229.414C402.922 229.434 403.746 229.353 404.57 229.337C405.286 229.323 413.229 229.169 413.43 229.415C413.532 229.54 409.385 230.611 409.168 230.953C408.918 231.348 416.142 230.773 416.062 230.996C415.83 231.638 411.764 232.373 411.8 232.534C411.921 233.073 415.995 233.124 416.497 233.175C416.985 233.225 418.431 233.188 417.96 233.324C410.989 235.323 414.198 231.263 409.319 227.848C406.866 226.131 403.997 225.32 401.326 224.081C400.515 223.704 395.888 220.54 396.228 219.293C396.596 217.944 400.404 218.226 399.498 217.819C397.977 217.134 393.067 218.514 392.018 218.702C387.05 219.591 382.108 220.67 377.122 221.46C365.287 223.334 354.286 219.864 342.562 218.937C336.113 218.427 329.642 219.111 323.182 218.941C313.597 218.689 304.995 218.852 295.461 220.233C293.018 220.586 293.491 220.444 290.973 220.762C290.052 220.879 281.84 222.177 281.801 222.131C281.724 222.036 282.027 222.037 282.143 222.001C283.633 221.534 285.064 221.157 286.551 220.642C289.573 219.595 292.495 219.168 295.626 218.607C305.531 216.834 315.149 215.518 325.14 214.213C327.857 213.857 330.572 213.604 333.287 213.233C334.504 213.067 335.719 212.862 336.946 212.783C337.109 212.773 337.593 212.797 337.433 212.833C327.575 215.043 317.327 215.89 307.478 218.332C298.446 220.572 289.232 223.057 280.074 224.583C278.487 224.847 276.922 224.203 275.344 224.267C270.967 224.445 263.976 225.11 259.684 226.455C258.828 226.723 254.947 227.519 254.205 227.048C253.989 226.912 251.17 226.003 251.279 226.751C251.794 230.31 265.08 237.173 268.509 239.832C273.875 243.995 275.673 251.176 280.711 255.523C282.517 257.08 284.638 257.28 286.674 258.263C287.883 258.847 288.689 259.932 289.889 260.56C292.791 262.077 298.454 262.809 301.866 263.911C310.429 266.675 319.748 275.142 329.312 273.43C338.383 271.806 348.528 268.847 357.059 265.407C360.457 264.037 363.985 262.658 367.47 261.537C368.192 261.305 368.937 261.148 369.666 260.939C370.182 260.791 371.696 260.247 371.195 260.437C359.943 264.704 346.731 266.363 334.912 268.414C330.425 269.193 326.068 270.301 321.641 271.337C321.145 271.453 318.262 272.118 317.445 272.225C316.956 272.289 315.505 272.414 315.966 272.239C327.328 267.93 338.885 263.925 350.515 260.309C354.081 259.2 357.624 258.032 361.202 256.959C364.336 256.02 362.107 256.668 364.926 255.859C365.208 255.778 365.957 255.844 365.772 255.617C365.409 255.172 356.241 257.247 355.234 257.503C345.723 259.927 336.219 262.418 326.61 264.451C323.53 265.103 320.389 265.611 317.259 265.966C316.272 266.078 313.514 266.785 314.284 266.156C316.767 264.131 321.276 263.398 324.191 262.399C331.076 260.041 338.003 257.831 345.043 255.976C347.725 255.269 350.431 254.659 353.126 254.005C353.863 253.826 354.594 253.623 355.321 253.406C355.555 253.337 356.248 253.142 356.005 253.147C351.145 253.26 345.65 255.471 341.026 256.718C332.17 259.106 323.228 261.281 314.256 263.197C312.075 263.663 309.37 264.257 307.068 264.439C306.797 264.46 306.352 264.611 306.255 264.356C305.896 263.409 307.956 263.242 308.875 262.815C313.062 260.872 311.931 261.266 316.603 259.494C323.875 256.736 331.33 254.603 338.821 252.553C342.322 251.594 347.08 250.847 350.337 249.123C350.964 248.791 348.912 248.985 348.207 249.071C347.078 249.208 345.963 249.454 344.857 249.716C341.42 250.531 338.005 251.432 334.578 252.286C326.533 254.292 318.477 256.877 310.312 258.363C308.999 258.602 307.173 259.814 306.329 258.78C305.597 257.883 308.134 257.303 309.161 256.768C310.354 256.147 311.563 255.555 312.789 255.001C320.386 251.568 328.439 249.186 336.44 246.891C339.338 246.06 342.281 245.393 345.206 244.661C346.142 244.426 348.8 243.519 348.052 244.129C346.314 245.546 337.04 246.931 334.732 247.539C327.584 249.422 320.427 251.31 313.295 253.246C308.669 254.502 304.216 255.781 299.487 256.607C298.614 256.76 296.922 257.713 296.837 256.831C296.753 255.964 302.76 253.728 302.906 253.67C310.94 250.456 319.425 247.651 327.97 246.196C330.012 245.848 333.951 245.238 334.084 245.831C334.309 246.834 332.275 246.817 331.318 247.193C328.484 248.305 325.669 249.478 322.778 250.431C315.07 252.973 307.148 255.115 299.275 257.078C298.038 257.387 296.818 257.771 295.567 258.016C294.864 258.153 293.037 258.732 293.421 258.126C294.553 256.34 299.224 255.012 300.873 254.284C302.523 253.556 304.168 252.812 305.851 252.162C307.987 251.337 310.154 250.593 312.325 249.863C316.836 248.346 319.853 247.516 324.361 246.158C329.003 244.76 333.917 242.732 338.739 242.034C339.08 241.984 338.067 242.184 337.731 242.26C336.723 242.486 335.717 242.726 334.706 242.938C331.52 243.607 328.329 244.251 325.143 244.924C318.396 246.348 311.691 247.877 304.977 249.446C302.652 249.989 299.1 250.803 296.585 251.222C295.778 251.356 293.576 251.739 294.13 251.137C296.813 248.227 303.808 246.896 307.324 245.742C315.209 243.155 323.189 241.92 331.215 240.12C331.988 239.947 329.644 240.352 328.873 240.54C327.634 240.84 326.398 241.155 325.165 241.477C323.53 241.904 321.905 242.364 320.269 242.787C314.146 244.367 308.012 245.901 301.891 247.49C299.256 248.174 296.621 248.858 293.97 249.478C293.031 249.698 291.027 250.971 291.124 250.01C291.172 249.543 295.165 248.573 297.078 247.987C298.714 247.486 320.511 241.236 308.671 247.029C307.421 247.64 306.166 248.246 304.88 248.779C303.193 249.478 301.473 250.097 299.756 250.722C297.948 251.381 296.116 251.976 294.307 252.633C292.581 253.259 288.758 255.31 286.533 254.8C286.414 254.772 286.319 254.546 286.403 254.458C288.225 252.55 291.58 251.181 293.904 250.128C297.825 248.352 301.803 246.616 305.764 244.927C306.324 244.688 307.108 244.767 307.472 244.279C307.7 243.974 306.715 244.14 306.334 244.164C305.385 244.225 304.436 244.339 303.505 244.534C302.138 244.819 300.802 245.234 299.455 245.601C295.21 246.757 291.022 248.103 286.655 248.736C285.831 248.855 284.35 249.789 284.168 248.976C283.936 247.942 287.968 246.9 290.22 245.977C294.925 244.05 299.507 242.344 304.372 240.844C306.47 240.198 308.53 239.424 310.65 238.854C311.033 238.751 312.214 238.588 311.821 238.644C304.904 239.646 297.981 242.514 291.214 244.272C289.508 244.715 286.032 245.574 283.977 246C283.757 246.046 283.452 246.271 283.31 246.097C282.661 245.301 285.137 245.153 286.076 244.735C287.323 244.181 288.582 243.651 289.85 243.148C295.748 240.807 301.858 239.012 308.002 237.436C310.359 236.831 314.005 236.066 316.557 235.676C317.106 235.593 318.513 235.047 318.215 235.516C317.067 237.329 314.152 236.899 312.099 237.523C306.351 239.269 300.587 240.962 294.826 242.667C293.42 243.084 291.999 243.451 290.597 243.88C289.851 244.109 289.127 244.402 288.385 244.641C288.221 244.694 287.72 244.815 287.881 244.754C296.896 241.335 306.459 238.843 315.921 237.09C317.354 236.824 322.751 235.172 324.588 235.835C325.625 236.209 322.452 236.386 321.384 236.659C320.649 236.847 319.928 237.091 319.188 237.257C316.449 237.872 313.698 238.435 310.959 239.05C302.054 241.047 293.021 243.454 283.866 243.854C283.263 243.881 279.962 244.057 278.973 243.522C277.848 242.913 280.704 241.396 284.1 239.936C288.701 237.959 293.479 236.312 298.252 234.804C299.486 234.414 300.727 234.042 301.976 233.704C302.793 233.483 305.205 232.865 304.481 233.301C300.693 235.583 294.401 236.549 290.232 237.767C288.164 238.371 286.078 238.912 283.987 239.432C281.888 239.954 279.331 240.519 277.107 240.869C275.96 241.05 276.12 241.021 276.799 240.673C277.606 240.26 278.401 239.824 279.223 239.441C280.528 238.835 281.847 238.258 283.176 237.708C288.21 235.622 293.368 234.107 298.629 232.707C299.811 232.392 301.519 232.787 302.174 231.753C302.775 230.805 299.936 231.99 298.841 232.236C297.261 232.59 295.699 233.023 294.124 233.399C288.217 234.812 282.279 236.367 276.203 236.836C275.166 236.916 274.122 236.833 273.082 236.847C272.696 236.853 271.749 237.236 271.927 236.894C272.64 235.53 282.919 232.645 284.567 232.101C285.864 231.672 287.177 231.294 288.47 230.855C289.277 230.58 291.582 230.404 290.862 229.948C289.938 229.363 285.141 231.203 284.812 231.305C280.866 232.518 275.221 235.258 270.987 234.828C270.175 234.746 272.345 233.907 273.086 233.563C273.994 233.143 274.918 232.761 275.836 232.364C277.8 231.514 281.307 230.696 282.896 229.139C283.454 228.594 281.329 229.212 280.571 229.396C279.332 229.697 278.096 230.009 276.863 230.333C272.386 231.513 267.906 233.237 263.347 234.053C262.628 234.181 264.718 233.545 265.397 233.275C267.336 232.504 268.231 232.037 270.179 231.462C270.775 231.286 272.349 230.631 272.017 231.155C271.357 232.197 264.438 233.552 268.683 231.638C269.306 231.358 269.916 231.038 270.57 230.844C271.166 230.668 271.796 230.64 272.408 230.538" fill="none" opacity="1" stroke="#0fc06b" stroke-linecap="round" stroke-linejoin="round" stroke-width="10" vectornator:layerName="Curve 30"/>
<path d="M286.889 231.826C286.249 232.035 292.509 229.928 294.037 229.354" fill="none" opacity="1" stroke="#0fc06b" stroke-linecap="round" stroke-linejoin="round" stroke-width="10" vectornator:layerName="Curve 35"/>
<path d="M384.908 199.397C382.948 198.535 385.811 199.781 386.571 200.275C388.409 201.471 390.258 202.676 391.894 204.081C397.885 209.228 403.295 215.53 409.525 220.475C422.718 230.946 443.068 239.229 460.423 242.138" fill="none" opacity="1" stroke="#0fc06b" stroke-linecap="round" stroke-linejoin="round" stroke-width="10" vectornator:layerName="Curve 25"/>
<path d="M272.471 229.942C274.471 228.869 279.222 228.667 281.666 228.785" fill="none" opacity="1" stroke="#ffffff" stroke-linecap="round" stroke-linejoin="round" stroke-opacity="0.995495" stroke-width="10" vectornator:layerName="Curve 36"/>
<path d="M302.686 226.87C305.525 226.381 308.096 225.12 311.034 225.261" fill="none" opacity="1" stroke="#ffffff" stroke-linecap="round" stroke-linejoin="round" stroke-opacity="0.995495" stroke-width="10" vectornator:layerName="Curve 37"/>
<path d="M328.468 222.855C329.229 223.084 339.87 219.849 338.6 221.194" fill="none" opacity="1" stroke="#ffffff" stroke-linecap="round" stroke-linejoin="round" stroke-opacity="0.995495" stroke-width="10" vectornator:layerName="Curve 38"/>
<path d="M359.443 217.261C359.167 217.409 358.283 217.732 358.56 217.584C361.014 216.267 365.033 216.326 367.809 216.246" fill="none" opacity="1" stroke="#ffffff" stroke-linecap="round" stroke-linejoin="round" stroke-opacity="0.995495" stroke-width="10" vectornator:layerName="Curve 39"/>
<path d="M383.71 214.36C386.541 214.279 389.389 213.483 392.255 213.4" fill="none" opacity="1" stroke="#ffffff" stroke-linecap="round" stroke-linejoin="round" stroke-opacity="0.995495" stroke-width="10" vectornator:layerName="Curve 40"/>
<path d="M282.073 245.026C282.245 246.022 288.738 244.304 290.024 244.083" fill="none" opacity="1" stroke="#ffffff" stroke-linecap="round" stroke-linejoin="round" stroke-opacity="0.995495" stroke-width="10" vectornator:layerName="Curve 41"/>
<path d="M303.906 242.374C307.062 241.107 310.711 240.63 314.093 240.533" fill="none" opacity="1" stroke="#ffffff" stroke-linecap="round" stroke-linejoin="round" stroke-opacity="0.995495" stroke-width="10" vectornator:layerName="Curve 42"/>
<path d="M331.601 236.577C334.267 235.146 337.325 235.437 340.058 234.607" fill="none" opacity="1" stroke="#ffffff" stroke-linecap="round" stroke-linejoin="round" stroke-opacity="0.995495" stroke-width="10" vectornator:layerName="Curve 43"/>
<path d="M354.983 233.999C357.796 233.145 361.988 231.395 364.936 232.284" fill="none" opacity="1" stroke="#ffffff" stroke-linecap="round" stroke-linejoin="round" stroke-opacity="0.995495" stroke-width="10" vectornator:layerName="Curve 44"/>
<path d="M383.111 228.725C386.795 227.246 391.054 227.306 394.973 227.194" fill="none" opacity="1" stroke="#ffffff" stroke-linecap="round" stroke-linejoin="round" stroke-opacity="0.995495" stroke-width="10" vectornator:layerName="Curve 45"/>
<path d="M299.826 257.851C302.304 257.78 305.195 257.387 307.399 256.204" fill="none" opacity="1" stroke="#ffffff" stroke-linecap="round" stroke-linejoin="round" stroke-opacity="0.995495" stroke-width="10" vectornator:layerName="Curve 46"/>
<path d="M325.662 253.655C326.465 252.805 328.372 252.953 329.449 252.832" fill="none" opacity="1" stroke="#ffffff" stroke-linecap="round" stroke-linejoin="round" stroke-opacity="0.995495" stroke-width="10" vectornator:layerName="Curve 47"/>
<path d="M349.969 248.015C352.23 246.802 355.389 246.456 357.885 245.882" fill="none" opacity="1" stroke="#ffffff" stroke-linecap="round" stroke-linejoin="round" stroke-opacity="0.995495" stroke-width="10" vectornator:layerName="Curve 48"/>
<path d="M378.188 241.786C379.491 240.405 383.377 240.196 385.094 239.742" fill="none" opacity="1" stroke="#ffffff" stroke-linecap="round" stroke-linejoin="round" stroke-opacity="0.995495" stroke-width="10" vectornator:layerName="Curve 49"/>
<path d="M406.226 235.503C405.516 235.288 409.858 234.706 410.427 234.608" fill="none" opacity="1" stroke="#ffffff" stroke-linecap="round" stroke-linejoin="round" stroke-opacity="0.995495" stroke-width="10" vectornator:layerName="Curve 50"/>
<path d="M296.601 113.662C295.72 113.239 297.327 115.667 297.566 113.903C297.627 113.455 296.52 113.328 296.472 113.687C296.393 114.265 297.501 114.629 297.614 114.043C297.773 113.219 296.738 113.728 296.601 113.662Z" fill="none" opacity="1" stroke="#ffffff" stroke-linecap="round" stroke-linejoin="round" stroke-opacity="0.995495" stroke-width="3.9537" vectornator:layerName="Curve 51"/>
<path d="M302.707 112.739L302.683 112.669L302.661 112.833L302.662 112.951L302.65 113.033L302.686 113.139L302.769 113.15L302.874 113.114L302.933 113.055L302.85 113.044" fill="none" opacity="1" stroke="#ffffff" stroke-linecap="round" stroke-linejoin="round" stroke-opacity="0.995495" stroke-width="0.893331" vectornator:layerName="Curve 52"/>
<path d="M253.961 153.08C251.724 152.633 251.218 146.921 250.58 145.01C250.285 144.124 247.316 141.507 247.745 140.756C250.007 136.798 252.979 139.579 256.361 138.902C257.138 138.747 258.084 137.672 258.978 138.03C259.438 138.214 259.096 140.102 259.414 140.102C260.747 140.102 264.084 134.195 266.722 133.667C267.536 133.504 269.018 136.194 269.23 136.83C269.837 138.65 271.122 140.154 271.847 141.847C272.536 143.454 272.706 145.622 273.265 147.3" fill="none" opacity="1" stroke="#ffffff" stroke-linecap="round" stroke-linejoin="round" stroke-opacity="0.995495" stroke-width="2.95927" vectornator:layerName="Curve 53"/>
<path d="M286.407 138.412C284.734 138.694 284.868 141.176 284.608 142.61C283.729 147.445 288.259 151.053 292.678 147.518C293.253 147.058 294.867 145.401 294.969 144.792C295.046 144.325 294.122 143.971 293.878 143.483C292.301 140.33 294.338 140.332 290.17 138.248C289.68 138.003 289.54 137.04 289.188 136.939C288.314 136.689 286.579 138.383 286.407 138.412Z" fill="none" opacity="1" stroke="#ffffff" stroke-linecap="round" stroke-linejoin="round" stroke-opacity="0.995495" stroke-width="2.95927" vectornator:layerName="Curve 54"/>
<path d="M295.405 142.938C295.907 144.445 298.326 146.2 299.767 145.119" fill="none" opacity="1" stroke="#ffffff" stroke-linecap="round" stroke-linejoin="round" stroke-opacity="0.995495" stroke-width="2.95927" vectornator:layerName="Curve 55"/>
<path d="M307.293 137.484C305.849 137.484 305.733 136.199 307.184 135.958C308.154 135.796 308.05 137.517 308.929 137.266C309.695 137.047 310.127 136.201 310.892 137.157C312.035 138.587 312.588 140.441 313.4 142.065C313.67 142.606 314.018 142.973 314.273 143.483C314.433 143.803 314.709 144.822 314.709 144.464C314.709 142.222 312.945 140.098 312.637 138.248C312.436 137.043 313.97 136.64 314.709 136.394C315.34 136.183 315.693 134.818 316.236 134.431C316.825 134.01 321.881 134.821 322.234 135.085C324.527 136.805 323.597 142.829 326.378 142.829" fill="none" opacity="1" stroke="#ffffff" stroke-linecap="round" stroke-linejoin="round" stroke-opacity="0.995495" stroke-width="2.95927" vectornator:layerName="Curve 56"/>
<path d="M333.031 133.667C333.031 133.302 333.086 132.25 332.922 132.577C332.417 133.587 334.247 139.666 335.54 139.666C336.767 139.666 339.264 139.406 340.447 139.011C341.256 138.742 344.294 132.705 344.156 132.359C343.882 131.675 341.25 132.101 342.301 131.05" fill="none" opacity="1" stroke="#ffffff" stroke-linecap="round" stroke-linejoin="round" stroke-opacity="0.995495" stroke-width="2.95927" vectornator:layerName="Curve 57"/>
<path d="M300.64 168.24C300.523 168.006 301.285 170.945 301.403 171.403C301.906 173.343 301.953 175.248 302.276 177.183C302.384 177.835 303.694 179.8 303.694 179.473" fill="none" opacity="1" stroke="#ffffff" stroke-linecap="round" stroke-linejoin="round" stroke-opacity="0.995495" stroke-width="2.95927" vectornator:layerName="Curve 58"/>
<path d="M301.512 173.148C297.406 172.326 295.719 164.913 298.786 162.46C299.715 161.716 302.043 162.149 303.148 162.242C305.12 162.406 308.87 167.615 308.383 169.44C308.148 170.322 305.329 171.978 305.329 172.275C305.329 172.657 308.407 173.277 308.601 173.366C310.561 174.264 312.988 176.863 315.363 175.438" fill="none" opacity="1" stroke="#ffffff" stroke-linecap="round" stroke-linejoin="round" stroke-opacity="0.995495" stroke-width="2.95927" vectornator:layerName="Curve 59"/>
<path d="M268.848 193.379C264.783 195.378 252.612 183.968 259.523 180.128C260.065 179.827 260.544 180.219 261.05 180.346C263.505 180.959 264.389 182.356 265.304 184.708C265.395 184.943 265.758 186.999 266.285 186.999C266.416 186.999 266.477 184.621 266.503 184.49C266.983 182.091 269.148 176.728 272.284 178.819C276.414 181.573 271.94 191.858 268.848 193.379Z" fill="none" opacity="1" stroke="#ffffff" stroke-linecap="round" stroke-linejoin="round" stroke-opacity="0.995495" stroke-width="2.95927" vectornator:layerName="Curve 60"/>
<path d="M336.139 173.366C335.413 175.849 325.668 166.461 331.395 164.314C333.634 163.474 333.314 168.349 334.34 168.349C334.536 168.349 334.461 167.974 334.558 167.804C335.38 166.365 336.66 164.68 338.266 164.096C340.203 163.391 340.668 165.592 340.556 167.04C340.303 170.339 336.748 171.287 336.139 173.366Z" fill="none" opacity="1" stroke="#ffffff" stroke-linecap="round" stroke-linejoin="round" stroke-opacity="0.995495" stroke-width="2.95927" vectornator:layerName="Curve 61"/>
<path d="M293.66 190.489C292.346 191.803 291.213 193.348 289.515 194.197C288.858 194.525 286.926 195.136 287.334 194.524C287.859 193.737 289.073 195.577 289.188 195.724C290.01 196.769 290.789 197.703 292.024 198.232" fill="none" opacity="1" stroke="#ffffff" stroke-linecap="round" stroke-linejoin="round" stroke-opacity="0.995495" stroke-width="2.95927" vectornator:layerName="Curve 62"/>
<path d="M307.293 189.725C306.128 189.143 309.873 190.805 310.564 190.925C311.353 191.062 312.964 190.233 312.964 191.034C312.964 191.795 308.191 195.172 307.293 195.396" fill="none" opacity="1" stroke="#ffffff" stroke-linecap="round" stroke-linejoin="round" stroke-opacity="0.995495" stroke-width="2.95927" vectornator:layerName="Curve 63"/>
<path d="M301.839 190.816C300.47 192.733 300.03 195.002 299.113 197.141" fill="none" opacity="1" stroke="#ffffff" stroke-linecap="round" stroke-linejoin="round" stroke-opacity="0.995495" stroke-width="2.95927" vectornator:layerName="Curve 64"/>
<path d="M333.249 184.49C329.395 184.49 329.199 191.04 334.449 188.853" fill="none" opacity="1" stroke="#ffffff" stroke-linecap="round" stroke-linejoin="round" stroke-opacity="0.995495" stroke-width="2.95927" vectornator:layerName="Curve 65"/>
<path d="M339.357 184.272C337.582 184.439 338.362 189.303 341.538 186.126C342.271 185.393 342.669 183.871 341.32 183.618C340.428 183.45 340.28 183.605 339.575 184.054C339.422 184.152 339.01 184.51 339.139 184.381C339.303 184.217 339.589 184.25 339.357 184.272Z" fill="none" opacity="1" stroke="#ffffff" stroke-linecap="round" stroke-linejoin="round" stroke-opacity="0.995495" stroke-width="2.95927" vectornator:layerName="Curve 66"/>
<path d="M349.609 178.928C349.609 179.797 349.956 182.387 349.5 183.072C349.443 183.158 349.354 182.927 349.281 182.854C348.626 182.199 347.877 182.18 347.1 182.745C346.211 183.392 345.021 185.989 346.555 186.671C347.512 187.097 351.239 183.503 350.481 182.745C349.962 182.226 349.922 184.472 350.263 184.926" fill="none" opacity="1" stroke="#ffffff" stroke-linecap="round" stroke-linejoin="round" stroke-opacity="0.995495" stroke-width="2.95927" vectornator:layerName="Curve 67"/>
<path d="M356.043 181.764C355.498 181.945 355.131 181.201 355.062 181.218C354.066 181.467 353.194 186.733 357.679 184.49" fill="none" opacity="1" stroke="#ffffff" stroke-linecap="round" stroke-linejoin="round" stroke-opacity="0.995495" stroke-width="2.95927" vectornator:layerName="Curve 68"/>
<path d="M360.624 180.346C361.421 180.824 361.906 181.559 362.587 182.2C363.205 182.782 363.78 183.41 364.332 184.054C364.555 184.314 365.203 185.035 364.877 184.926C362.375 184.092 361.934 180.046 364.659 179.364" fill="none" opacity="1" stroke="#ffffff" stroke-linecap="round" stroke-linejoin="round" stroke-opacity="0.995495" stroke-width="2.95927" vectornator:layerName="Curve 69"/>
</g>
</svg>
