<?xml version="1.0" encoding="UTF-8" standalone="no"?>
<!DOCTYPE svg PUBLIC "-//W3C//DTD SVG 1.1//EN" "http://www.w3.org/Graphics/SVG/1.1/DTD/svg11.dtd">
<!-- Created with Vectornator (http://vectornator.io/) -->
<svg height="100%" stroke-miterlimit="10" style="fill-rule:nonzero;clip-rule:evenodd;stroke-linecap:round;stroke-linejoin:round;" version="1.1" viewBox="0 0 841.995 595.35" width="100%" xml:space="preserve" xmlns="http://www.w3.org/2000/svg" xmlns:vectornator="http://vectornator.io" xmlns:xlink="http://www.w3.org/1999/xlink">
<defs/>
<g id="Layer-1" vectornator:layerName="Layer 1">
<path d="M333.67 147.122C323.379 141.976 317.905 160.249 317.097 167.52C313.842 196.809 350.613 220.107 374.892 200.242C387.162 190.203 394.712 152.446 372.342 147.972C366.855 146.874 352.142 146.924 348.119 150.946C347.578 151.487 347.039 154.051 345.569 153.071C341.606 150.429 335.91 145.39 334.52 150.946C333.983 153.097 342.621 148.509 340.47 147.972C338.853 147.567 329.874 150.068 329.846 150.096C323.194 156.748 321.209 183.399 336.645 174.319C350.311 166.281 335.679 150.38 326.021 164.545C319.709 173.803 328.687 190.732 340.47 188.768C352.892 186.698 357.924 169.732 344.719 164.545C332.372 159.694 320.516 180.678 333.67 185.793C340.362 188.396 351.19 172.426 347.269 167.945C344.781 165.102 327.973 169.472 330.271 171.77C332.713 174.212 340.125 172.484 343.02 172.195C344.711 172.025 348.994 170.737 348.119 172.195C339.427 186.681 326.493 167.411 336.645 167.945C346.19 168.447 354.226 184.44 343.87 189.618C335.029 194.038 331.033 173.236 345.569 179.844C347.442 180.695 351.399 183.75 351.094 186.643C349.626 200.59 328.689 196.569 334.945 189.618C341.903 181.887 362.838 195.657 344.719 201.092C333.51 204.455 347.108 180.353 355.344 189.618C358.84 193.551 344.677 205.234 340.045 198.542C338.796 196.739 338.736 184.909 342.595 188.768C345.91 192.083 340.831 197.246 337.07 195.993C325.567 192.158 334.765 182.682 337.92 190.043C339.981 194.853 328.519 196.251 329.846 189.618C331.189 182.902 354.597 189.254 359.593 187.068C361.516 186.227 363.147 183.824 363.843 181.969C370.25 164.883 353.091 176.613 355.769 181.969C359.319 189.071 374.244 178.832 373.192 173.044C372.067 166.855 354.552 171.492 357.893 179.844C361.809 189.633 380.877 178.21 374.042 170.92C369.126 165.676 354.066 166.236 357.468 176.444C361.084 187.292 380.26 172.386 368.517 162.845C357.272 153.708 353.944 183.234 365.968 176.019C389.696 161.782 340.127 146.319 352.794 170.07C357.091 178.127 369.627 165.791 364.693 159.871C358.74 152.728 344.433 164.683 349.394 169.645C352.757 173.008 364.661 162.168 364.268 159.021C363.75 154.88 344.072 165.422 348.119 168.795C351.82 171.879 361.015 166.29 358.318 161.57C353.838 153.73 336.362 157.908 342.17 164.545C346.476 169.466 360.787 158.514 358.318 156.046C351.45 149.177 341.082 163.978 343.445 165.395C348.414 168.377 357.273 155.837 360.443 156.471C362.747 156.932 364.726 159.903 367.668 158.596C368.895 158.05 371.578 153.298 372.767 153.496C374.123 153.722 376.453 159.594 377.017 160.72C383.625 173.937 369.071 188.145 358.743 194.718C356.849 195.923 344.012 197.692 357.043 197.692C359.168 197.692 361.334 198.109 363.418 197.692C366.118 197.152 370.434 194.966 371.917 192.593C372.924 190.981 375.521 185.912 374.467 187.493C372.744 190.078 367.536 195.993 370.642 195.993C372.257 195.993 372.648 193.46 373.617 192.168C381.033 182.28 369.129 195.404 373.617 187.068C375.766 183.078 386.366 175.169 379.567 171.77C375.231 169.602 364.82 175.612 358.743 174.744C351.983 173.779 340.365 166.777 334.52 163.27C318.984 153.948 331.691 150.532 329.846 144.997C329.493 143.939 326.394 145.288 326.021 145.847C325.358 146.841 330.995 143.492 331.971 143.297C335.577 142.576 338.958 140.503 342.595 139.897C346.621 139.226 384.758 141.838 379.992 151.371C379.737 151.881 372.908 148.449 372.767 148.396C367.542 146.437 357.401 144.444 353.219 149.671C345.592 159.205 362.723 157.382 361.293 150.946C359.558 143.137 339.708 150.272 342.595 156.046C344.5 159.857 356.736 151.591 354.494 150.096C351.134 147.857 336.468 147.086 337.92 154.346C339.051 160.001 355.806 156.971 352.794 150.946C348.838 143.034 330.033 147.07 333.245 153.496C337.557 162.12 345.269 150.149 343.02 156.896" fill="none" opacity="1" stroke="#0fc06b" stroke-linecap="round" stroke-linejoin="round" stroke-opacity="0.995495" stroke-width="9.92597" vectornator:layerName="Curve 1"/>
<path d="M332.45 138.222C326.229 142.997 317.058 134.35 317.931 127.711C318.038 126.897 320.712 121.051 322.705 123.125C323.009 123.442 323.136 124.713 322.792 124.44C317.862 120.525 316.638 110.04 317.598 104.468C317.914 102.637 320.779 98.6906 323.006 101.008C323.221 101.232 323.651 102.049 323.417 101.844C320.834 99.5844 318.784 94.3997 319.093 91.1096C319.682 84.851 329.458 80.2646 329.301 78.8969C328.642 73.1549 331.995 62.9707 335.583 58.8693C341.715 51.8603 350.141 60.8264 350.769 60.3444C354.521 57.4641 354.219 47.5039 362.736 48.6236C367.071 49.1935 367.963 53.4042 370.808 54.6375C373.304 55.7192 376.545 53.6453 379.21 54.178C379.744 54.2848 380.24 54.5716 380.68 54.8926C384.066 57.3615 381.849 60.7486 382.9 63.7864C383.678 66.0364 390.71 65.0291 391.127 70.6027C391.361 73.7283 387.242 79.3538 387.629 81.3515C387.908 82.7976 394.435 83.1158 393.57 89.692C393.105 93.2274 389.079 96.0979 388.736 98.7012C388.671 99.2017 393.129 101.348 392.385 104.655C391.453 108.797 384.72 113.389 384.328 116.368C384.082 118.242 387.972 118.862 387.923 120.751C387.82 124.729 383.249 126.559 382.9 129.214C382.741 130.428 385.136 131.149 384.836 132.336C383.615 137.159 371.779 144.241 375.025 137.563" fill="none" opacity="1" stroke="#ffffff" stroke-linecap="round" stroke-linejoin="round" stroke-opacity="0.995495" stroke-width="7.0085" vectornator:layerName="Curve 7"/>
<path d="M317.945 181.077C321.415 188.23 310.94 195.555 304.521 193.325C303.734 193.051 298.473 189.197 300.943 187.646C301.32 187.409 302.609 187.544 302.267 187.829C297.365 191.917 286.693 190.978 281.353 188.881C279.598 188.191 276.264 184.537 279.023 182.804C279.29 182.637 280.19 182.378 279.939 182.568C277.163 184.667 271.59 185.636 268.384 184.653C262.284 182.784 259.731 172.141 258.34 172.016C252.498 171.49 243.064 166.071 239.724 161.668C234.015 154.145 244.654 147.626 244.304 146.904C242.211 142.589 232.25 140.842 235.11 132.621C236.565 128.437 240.933 128.417 242.742 125.847C244.329 123.593 242.933 119.951 244.009 117.416C244.224 116.908 244.611 116.475 245.02 116.104C248.168 113.252 251.08 116.147 254.314 115.729C256.71 115.419 257.151 108.234 262.776 108.965C265.93 109.375 270.676 114.618 272.741 114.645C274.236 114.664 275.89 108.254 282.249 110.462C285.667 111.65 287.694 116.235 290.211 117.109C290.695 117.277 293.743 113.294 296.876 114.712C300.802 116.488 303.985 124.112 306.866 125.112C308.677 125.741 310.091 122.009 311.958 122.446C315.891 123.365 316.772 128.276 319.339 129.168C320.513 129.576 321.721 127.347 322.839 127.888C327.382 130.09 331.993 143.29 326.022 138.697" fill="none" opacity="1" stroke="#ffffff" stroke-linecap="round" stroke-linejoin="round" stroke-opacity="0.995495" stroke-width="7.0085" vectornator:layerName="Curve 6"/>
<path d="M389.522 194.693C387.333 187.163 398.721 181.76 404.589 184.986C405.309 185.381 409.783 189.996 407.127 191.099C406.722 191.267 405.491 190.924 405.87 190.703C411.31 187.532 421.523 190.201 426.365 193.12C427.956 194.079 430.592 198.183 427.624 199.415C427.337 199.534 426.42 199.638 426.695 199.495C429.739 197.909 435.314 197.883 438.267 199.367C443.884 202.188 444.605 212.963 445.937 213.314C451.525 214.786 459.795 221.61 462.313 226.443C466.615 234.702 455.201 239.295 455.421 240.055C456.742 244.597 466.131 247.935 461.993 255.463C459.887 259.295 455.64 258.596 453.457 260.799C451.543 262.731 452.298 266.504 450.833 268.793C450.539 269.252 450.092 269.61 449.633 269.903C446.103 272.161 443.753 268.865 440.541 268.74C438.162 268.647 436.545 275.565 431.201 273.928C428.204 273.011 424.459 267.129 422.458 266.764C421.009 266.499 418.341 272.464 412.529 269.269C409.404 267.551 408.192 262.757 405.891 261.492C405.449 261.249 401.829 264.623 399.019 262.728C395.498 260.355 393.666 252.414 391.033 250.967C389.377 250.056 387.386 253.455 385.644 252.723C381.975 251.182 374.128 244.369 371.781 243.079C370.708 242.489 372.778 229.817 371.781 229.106C367.73 226.217 366.738 202.186 371.781 207.637" fill="none" opacity="1" stroke="#ffffff" stroke-linecap="round" stroke-linejoin="round" stroke-opacity="0.995495" stroke-width="7.0085" vectornator:layerName="Curve 4"/>
<path d="M328.861 207.637C335.537 209.591 334.842 232.125 328.861 234.889C328.128 235.228 325.555 244.134 326.461 241.674C326.6 241.298 327.62 240.561 327.535 240.943C326.32 246.411 317.98 252.612 312.864 254.771C311.182 255.48 306.631 255.469 307.644 252.72C307.742 252.454 308.249 251.736 308.176 252.004C307.363 254.976 303.852 259.059 300.941 260.516C295.402 263.288 287.375 258.731 286.286 259.538C281.714 262.925 271.684 265.745 266.695 265.304C258.168 264.549 262.167 254.046 261.493 253.848C257.466 252.67 249.177 257.952 246.507 251.378C245.148 248.033 248.327 245.261 248.161 242.627C248.016 240.317 244.887 239.088 244.205 236.938C244.069 236.507 244.101 236.012 244.185 235.538C244.833 231.895 248.637 231.733 250.758 229.447C252.329 227.753 248.492 223.309 253.024 220.177C255.566 218.422 262.069 218.461 263.593 217.172C264.696 216.239 262.194 211.476 268.118 208.738C271.303 207.266 275.438 208.643 277.783 207.56C278.234 207.351 278.155 203.116 281.265 201.957C285.161 200.506 291.901 202.914 294.585 201.674C296.272 200.894 295.145 197.836 296.762 196.909C300.167 194.956 303.654 197.247 306.046 196.141C307.139 195.636 306.731 193.58 307.862 193.188C312.456 191.593 323.466 196.332 316.445 197.443" fill="none" opacity="1" stroke="#ffffff" stroke-linecap="round" stroke-linejoin="round" stroke-opacity="0.995495" stroke-width="7.0085" vectornator:layerName="Curve 3"/>
<path d="M374.992 146.849C368.314 142.737 373.128 131.088 379.642 129.539C380.441 129.349 386.856 129.766 385.627 132.366C385.44 132.763 384.297 133.335 384.43 132.917C386.333 126.915 395.694 122.037 401.243 120.95C403.066 120.592 407.774 121.865 406.401 124.77C406.269 125.051 405.659 125.744 405.767 125.453C406.958 122.234 411.073 118.473 414.257 117.59C420.315 115.91 428.083 123.412 429.305 122.778C434.436 120.118 445.146 119.624 450.257 121.516C458.99 124.749 453.613 135.816 454.287 136.231C458.314 138.711 467.514 134.882 469.501 143.239C470.512 147.493 466.895 149.826 466.756 152.924C466.634 155.641 469.727 157.931 470.178 160.611C470.269 161.148 470.177 161.714 470.034 162.239C468.933 166.282 464.978 165.417 462.514 167.481C460.688 169.009 464.134 175.222 459.074 177.596C456.237 178.928 449.514 177.083 447.785 178.155C446.533 178.932 448.56 185.144 442.107 186.678C438.638 187.503 434.521 184.762 431.967 185.37C431.476 185.486 431.058 190.417 427.703 190.899C423.501 191.504 416.812 186.848 413.888 187.543C412.05 187.98 412.856 191.836 411.073 192.463C407.32 193.783 403.982 190.164 401.376 190.784C400.185 191.067 400.365 193.562 399.149 193.704C394.207 194.281 383.374 185.743 390.77 186.398" fill="none" opacity="1" stroke="#ffffff" stroke-linecap="round" stroke-linejoin="round" stroke-opacity="0.995495" stroke-width="7.0085" vectornator:layerName="Curve 2"/>
<path d="M335.234 156.216C336.696 153.291 335.761 147.561 332.588 146.767C331.373 146.464 327.87 151.694 326.541 149.035C325.803 147.56 334.454 139.185 335.234 139.964C336.099 140.83 330.135 142.087 329.942 142.232C328.924 142.996 323.225 147.267 323.517 146.389C326.498 137.446 353.557 139.936 366.981 141.854C369.231 142.175 376.387 150.589 378.32 148.657C380.71 146.267 366.859 146.512 369.249 144.122C371.626 141.745 378.578 146.167 379.076 148.657C379.202 149.287 378.999 151.001 379.454 150.547C380.392 149.609 376.632 146.566 374.918 148.279" fill="none" opacity="1" stroke="#0fc06b" stroke-linecap="round" stroke-linejoin="round" stroke-opacity="0.995495" stroke-width="7.0085" vectornator:layerName="Curve 9"/>
<path d="M317.848 169.066C317.848 176.202 327.683 189.085 327.675 189.098C325.94 191.699 318.682 178.137 318.604 178.137C317.95 178.137 322.195 187.774 322.005 187.964C321.17 188.799 317.47 179.238 317.47 178.137C317.47 174.925 318.755 188.266 321.627 186.83" fill="none" opacity="1" stroke="#0fc06b" stroke-linecap="round" stroke-linejoin="round" stroke-opacity="0.995495" stroke-width="7.0085" vectornator:layerName="Curve 10"/>
<path d="M401.919 188.576C401.144 187.414 396.387 188.457 396.387 189.53" fill="none" opacity="1" stroke="#ffffff" stroke-linecap="round" stroke-linejoin="round" stroke-opacity="0.995495" stroke-width="7.0085" vectornator:layerName="Curve 11"/>
<path d="M383.224 131.918C382.691 132.984 379.15 136.053 380.935 135.161" fill="none" opacity="1" stroke="#ffffff" stroke-linecap="round" stroke-linejoin="round" stroke-opacity="0.995495" stroke-width="7.0085" vectornator:layerName="Curve 12"/>
<path d="M380.553 136.115L378.264 137.641" fill="none" opacity="1" stroke="#ffffff" stroke-linecap="round" stroke-linejoin="round" stroke-opacity="0.995495" stroke-width="7.0085" vectornator:layerName="Curve 13"/>
<path d="M332.861 210.133C333.016 209.668 334.605 206.208 334.196 205.936C331.754 204.307 330.534 209.866 328.664 206.127C327.897 204.592 331.22 202.121 332.48 202.121" fill="none" opacity="1" stroke="#ffffff" stroke-linecap="round" stroke-linejoin="round" stroke-opacity="0.995495" stroke-width="7.0085" vectornator:layerName="Curve 14"/>
<path d="M318.433 178.613C319.904 181.554 322.461 186.309 322.461 189.73C322.461 190.203 322.574 190.616 321.978 190.616" fill="none" opacity="1" stroke="#10c06c" stroke-linecap="round" stroke-linejoin="round" stroke-width="7.0085" vectornator:layerName="Curve 15"/>
<path d="M322.139 190.938C322.139 191.475 317.6 180.949 317.95 180.949C319.259 180.949 320.912 184.811 319.642 184.494C318.976 184.327 317.035 180.869 317.628 180.869C329.168 180.869 329.456 203.666 338.411 203.666C339.78 203.666 336.005 202.327 334.706 201.894C332.434 201.137 330.521 198.714 329.147 198.027C329.08 197.994 328.134 197.598 328.181 197.785C328.51 199.105 340.667 205.328 340.667 205.358C340.667 205.681 340.017 205.34 339.7 205.277C335.831 204.503 333.044 199.666 329.389 198.752C329.095 198.679 328.577 198.353 328.261 198.51C327.566 198.858 329.911 199.537 329.953 199.558C330.755 199.959 338.995 205.176 338.492 205.68C338.349 205.823 337.645 205.373 337.525 205.277C336.841 204.73 330.656 201.813 329.228 201.813" fill="none" opacity="1" stroke="#10c06c" stroke-linecap="round" stroke-linejoin="round" stroke-width="7.0085" vectornator:layerName="Curve 16"/>
<path d="M335.617 152.228C338.895 154.629 341.921 155.284 345.986 154.409" fill="none" opacity="1" stroke="#040907" stroke-linecap="round" stroke-linejoin="round" stroke-opacity="0.995495" stroke-width="6.14868" vectornator:layerName="Curve 17"/>
<path d="M361.497 160.071C362.577 163.622 368.23 161.889 370.301 160.421" fill="none" opacity="1" stroke="#040907" stroke-linecap="round" stroke-linejoin="round" stroke-opacity="0.995495" stroke-width="6.14868" vectornator:layerName="Curve 18"/>
<path d="M336.371 179.675C335.636 180.678 341.131 185.611 342.586 186.05C348.93 187.962 360.208 191.164 364.642 185.109" fill="none" opacity="1" stroke="#040907" stroke-linecap="round" stroke-linejoin="round" stroke-opacity="0.995495" stroke-width="6.14868" vectornator:layerName="Curve 19"/>
<path d="M348.286 212.796C344.485 220.397 344.288 229.862 342.524 238.004C333.493 279.685 330.769 319.441 337.843 361.884C341.182 381.923 345.458 398.088 362.33 410.14" fill="none" opacity="1" stroke="#ffffff" stroke-linecap="round" stroke-linejoin="round" stroke-opacity="0.995495" stroke-width="6.09659" vectornator:layerName="Curve 20"/>
<path d="M246.261 288.128C246.261 283.338 253.93 293.993 257.024 297.65C263.887 305.76 266.69 308.971 274.412 316.693C292.728 335.01 307.824 341.671 333.611 344.016" fill="none" opacity="1" stroke="#ffffff" stroke-linecap="round" stroke-linejoin="round" stroke-opacity="0.995495" stroke-width="7.0085" vectornator:layerName="Curve 21"/>
<path d="M336.304 336.175C364.88 307.599 407.66 295.307 446.837 286.912" fill="none" opacity="1" stroke="#ffffff" stroke-linecap="round" stroke-linejoin="round" stroke-opacity="0.995495" stroke-width="7.0085" vectornator:layerName="Curve 22"/>
</g>
</svg>
