<?xml version="1.0" encoding="UTF-8" standalone="no"?>
<!DOCTYPE svg PUBLIC "-//W3C//DTD SVG 1.1//EN" "http://www.w3.org/Graphics/SVG/1.1/DTD/svg11.dtd">
<!-- Created with Vectornator (http://vectornator.io/) -->
<svg height="100%" stroke-miterlimit="10" style="fill-rule:nonzero;clip-rule:evenodd;stroke-linecap:round;stroke-linejoin:round;" version="1.1" viewBox="0 0 841.995 595.35" width="100%" xml:space="preserve" xmlns="http://www.w3.org/2000/svg" xmlns:vectornator="http://vectornator.io" xmlns:xlink="http://www.w3.org/1999/xlink">
<defs/>
<g id="Layer-1" vectornator:layerName="Layer 1">
<path d="M329.708 229.6C329.202 229.347 328.697 229.095 328.191 228.842" fill="none" opacity="1" stroke="#10c06c" stroke-linecap="round" stroke-linejoin="round" stroke-width="45.1513" vectornator:layerName="Curve 1"/>
<path d="M328.004 231.767C326.749 231.767 328.233 231.63 328.393 230.988C328.647 229.974 327.077 231.369 326.835 230.404C325.634 225.6 330.858 224.413 334.625 224.952C341.881 225.988 338.244 237.431 332.483 238.583C331.606 238.759 326.476 236.174 326.251 235.273C325.958 234.098 327.259 231.916 326.641 230.988C326.204 230.334 324.832 231.146 324.304 230.794C323.693 230.387 324.397 229.643 324.499 229.236C325.431 225.507 327.832 223.428 331.899 222.615C340.308 220.933 343.758 240.248 336.962 243.646C335.348 244.453 332.655 243.684 330.925 243.841C328.764 244.038 328.852 242.814 326.835 242.478C319.884 241.319 322.835 232.97 323.914 228.652C324.535 226.17 325.814 222.067 329.562 223.004C343.287 226.435 337.551 244.331 326.056 238.583" fill="none" opacity="1" stroke="#10c06c" stroke-linecap="round" stroke-linejoin="round" stroke-width="45.1513" vectornator:layerName="Curve 2"/>
<path d="M313.976 206.424C300.395 201.897 288.425 183.031 296.59 169.422C297.764 167.466 299.746 165.316 301.94 164.518C310.771 161.307 331.506 159.254 335.821 170.76C337.651 175.641 339.366 183.774 338.05 189.038C337.259 192.203 335.124 195.364 335.821 198.845C335.886 199.171 335.969 199.886 336.267 199.737C336.608 199.566 340.836 188.109 341.616 186.809C346.345 178.928 361.846 166.723 371.931 171.205C385.938 177.431 383.842 202.475 371.485 208.653C369.265 209.763 363.968 215.148 361.677 214.003" fill="none" opacity="1" stroke="#ffffff" stroke-linecap="round" stroke-linejoin="round" stroke-opacity="0.995495" stroke-width="5.56977" vectornator:layerName="Curve 3"/>
<path d="M314.852 208.698C314.826 208.698 303.804 201.716 302.13 201.065C287.461 195.361 275.045 197.858 271.173 214.635C268.973 224.171 273.102 233.606 283.047 235.414C286.898 236.115 290.305 235.414 294.073 235.414C295.474 235.414 296.544 234.99 297.889 234.99C298.472 234.99 300.107 234.827 299.586 234.566C296.971 233.259 290.679 237.913 288.984 239.231C281.946 244.705 272.648 260.678 276.686 269.764C282.672 283.231 298.909 274.495 306.795 269.764C309.668 268.04 311.343 263.042 311.884 263.403C313.629 264.566 312.933 274.119 313.156 276.124C313.869 282.54 321.798 289.499 327.998 290.119C338.252 291.144 339.195 283.243 341.568 276.124C341.704 275.718 343.071 268.067 343.264 268.067C343.456 268.067 351.376 280.42 352.594 281.637C358.893 287.937 380.409 285.819 381.854 275.7C382.909 268.314 380.595 257.76 374.645 252.801C372.07 250.655 370.557 248.289 368.284 246.016C367.929 245.661 362.744 243.95 362.771 243.896C363.569 242.3 374.317 243.896 375.493 243.896C384.244 243.896 395.591 241.445 398.393 231.174C401.053 221.417 392.548 211.77 383.55 209.971C379.78 209.216 374.087 210.819 369.98 210.819C368.929 210.819 363.528 212.515 365.316 212.515" fill="none" opacity="1" stroke="#ffffff" stroke-linecap="round" stroke-linejoin="round" stroke-opacity="0.995495" stroke-width="5.56977" vectornator:layerName="Curve 4"/>
<path d="M311.884 220.996C313.738 223.777 318.831 226.803 322.485 225.237C324.708 224.284 325.145 220.996 327.574 220.996" fill="none" opacity="1" stroke="#000000" stroke-linecap="round" stroke-linejoin="round" stroke-width="5.56977" vectornator:layerName="Curve 5"/>
<path d="M338.6 222.268C340.587 230.219 350.384 226.264 353.018 220.996" fill="none" opacity="1" stroke="#000000" stroke-linecap="round" stroke-linejoin="round" stroke-width="5.56977" vectornator:layerName="Curve 6"/>
<path d="M317.82 244.744C313.991 246.658 327.615 253.129 329.694 253.649C337.748 255.663 342.401 250.711 345.809 243.896" fill="none" opacity="1" stroke="#000000" stroke-linecap="round" stroke-linejoin="round" stroke-width="5.56977" vectornator:layerName="Curve 7"/>
</g>
</svg>
