<?xml version="1.0" encoding="UTF-8" standalone="no" ?>
<!DOCTYPE svg PUBLIC "-//W3C//DTD SVG 1.1//EN" "http://www.w3.org/Graphics/SVG/1.1/DTD/svg11.dtd">
<svg xmlns="http://www.w3.org/2000/svg" xmlns:xlink="http://www.w3.org/1999/xlink" version="1.1" width="1080" height="1080" viewBox="0 0 1080 1080" xml:space="preserve">
<desc>Created with Fabric.js 5.2.4</desc>
<defs>
</defs>
<g transform="matrix(1 0 0 1 540 540)" id="174aa1f5-0323-43a7-80de-31fbfad6621f"  >
<rect style="stroke: none; stroke-width: 1; stroke-dasharray: none; stroke-linecap: butt; stroke-dashoffset: 0; stroke-linejoin: miter; stroke-miterlimit: 4; fill: rgb(255,255,255); fill-rule: nonzero; opacity: 1; visibility: hidden;" vector-effect="non-scaling-stroke"  x="-540" y="-540" rx="0" ry="0" width="1080" height="1080" />
</g>
<g transform="matrix(1 0 0 1 540 540)" id="0db85efe-ef4a-42f6-ab86-8c26654274ce"  >
</g>
<g transform="matrix(1 0 0 1 540 540)" id="e5f51dc9-0d18-42da-8e81-0f101d0a8871"  >
<path style="stroke: rgb(255,255,255); stroke-width: 0; stroke-dasharray: none; stroke-linecap: butt; stroke-dashoffset: 0; stroke-linejoin: miter; stroke-miterlimit: 4; fill: rgb(255,255,255); fill-rule: nonzero; opacity: 1;" vector-effect="non-scaling-stroke"  transform=" translate(-372.28, -111.66)" d="M 177.707 98.987 C 141.715 77.612 82.347 75.64699999999999 47.988 86.07499999999999 C 42.469 87.749 36.635 84.63499999999999 34.964 79.11699999999999 C 33.292 73.59599999999999 36.403 67.76499999999999 41.924 66.088 C 81.36699999999999 54.11599999999999 146.932 56.428 188.36700000000002 81.024 C 193.33100000000002 83.971 194.95700000000002 90.38 192.01600000000002 95.334 C 189.07200000000003 100.297 182.657 101.934 177.70600000000002 98.98700000000001 M 176.52800000000002 130.645 C 174.00300000000001 134.74300000000002 168.645 136.02800000000002 164.55300000000003 133.512 C 134.54800000000003 115.068 88.79100000000003 109.724 53.291000000000025 120.5 C 48.688000000000024 121.89 43.825000000000024 119.296 42.42700000000002 114.7 C 41.039381567466414 110.09990246511049 43.63576800030621 105.24436911198237 48.23200000000001 103.84400000000001 C 88.78500000000003 91.537 139.20000000000002 97.49700000000001 173.66400000000002 118.677 C 177.75600000000003 121.197 179.044 126.557 176.52800000000002 130.645 M 162.865 161.049 C 161.90460662121842 162.62664290152443 160.35605084362763 163.75741601690484 158.56090778837498 164.19189729143352 C 156.76576473312232 164.62637856596223 154.87152014604075 164.32887179446115 153.29600000000002 163.365 C 127.07600000000002 147.34 94.07300000000002 143.721 55.20600000000002 152.59900000000002 C 53.407408749078016 153.01030442917528 51.51909050970063 152.690097495643 49.95663745857974 151.708852223351 C 48.39418440745885 150.72760695105902 47.28564748049509 149.16574135664789 46.875000000000014 147.36700000000002 C 46.46144114699137 145.56773421435275 46.780760426771096 143.6778579083832 47.76250435581949 142.11434674754062 C 48.74424828486788 140.550835586698 50.30773417683787 139.44218364857005 52.10800000000001 139.03300000000002 C 94.64100000000002 129.311 131.125 133.495 160.556 151.479 C 162.13166797215013 152.44148608 163.2603237794414 153.99062085035638 163.6935587257167 155.7854513420684 C 164.12679367199203 157.58028183378042 163.82910077018303 159.47370767185066 162.866 161.049 M 111.656 0 C 49.992 0 0 49.99 0 111.656 C 0 173.328 49.992 223.316 111.657 223.316 C 173.325 223.316 223.316 173.328 223.316 111.656 C 223.316 49.991 173.326 0 111.657 0 M 303.782 103.08 C 284.503 98.482 281.072 95.255 281.072 88.475 C 281.072 82.07 287.102 77.761 296.07 77.761 C 304.763 77.761 313.382 81.03399999999999 322.42 87.773 C 322.694 87.97699999999999 323.036 88.05799999999999 323.374 88.005 C 323.71056720825806 87.95489911825823 324.011756993135 87.7686893472959 324.20700000000005 87.49 L 333.62000000000006 74.22 C 334.00700000000006 73.67399999999999 333.90200000000004 72.92 333.38000000000005 72.503 C 322.624 63.873 310.51200000000006 59.677 296.3550000000001 59.677 C 275.5390000000001 59.677 260.9990000000001 72.167 260.9990000000001 90.042 C 260.9990000000001 109.209 273.5420000000001 115.994 295.21600000000007 121.23400000000001 C 313.66400000000004 125.48400000000001 316.7780000000001 129.042 316.7780000000001 135.407 C 316.7780000000001 142.459 310.48300000000006 146.84300000000002 300.35100000000006 146.84300000000002 C 289.09800000000007 146.84300000000002 279.91900000000004 143.05300000000003 269.65100000000007 134.16100000000003 C 269.39141523414656 133.94653466728232 269.0601002761425 133.83859818689697 268.72400000000005 133.85900000000004 C 268.38400000000007 133.88700000000003 268.07400000000007 134.04500000000004 267.85800000000006 134.30500000000004 L 257.30300000000005 146.86600000000004 C 256.86000000000007 147.38700000000003 256.91600000000005 148.16600000000005 257.42800000000005 148.61600000000004 C 269.37500000000006 159.28200000000004 284.06800000000004 164.91600000000005 299.92300000000006 164.91600000000005 C 322.3550000000001 164.91600000000005 336.84800000000007 152.65900000000005 336.84800000000007 133.69000000000005 C 336.84800000000007 117.65800000000006 327.2710000000001 108.79100000000005 303.78200000000004 103.08000000000006 M 403.88000000000005 124.56600000000006 C 403.88000000000005 138.10300000000007 395.5400000000001 147.55000000000007 383.6 147.55000000000007 C 371.797 147.55000000000007 362.89300000000003 137.67400000000006 362.89300000000003 124.56600000000006 C 362.89300000000003 111.45900000000006 371.797 101.58200000000005 383.601 101.58200000000005 C 395.349 101.58200000000005 403.88 111.24600000000005 403.88 124.56600000000006 M 387.597 84.06600000000006 C 377.87399999999997 84.06600000000006 369.9 87.89600000000006 363.32399999999996 95.74200000000006 L 363.32399999999996 86.91 C 363.32399999999996 86.213 362.758 85.645 362.061 85.645 L 344.8 85.645 C 344.10200000000003 85.645 343.538 86.213 343.538 86.91 L 343.538 185.046 C 343.538 185.743 344.10200000000003 186.31099999999998 344.8 186.31099999999998 L 362.06 186.31099999999998 C 362.758 186.31099999999998 363.324 185.74299999999997 363.324 185.046 L 363.324 154.069 C 369.901 161.451 377.877 165.057 387.59700000000004 165.057 C 405.66200000000003 165.057 423.95000000000005 151.14999999999998 423.95000000000005 124.56599999999999 C 423.95000000000005 97.97599999999998 405.66200000000003 84.06599999999999 387.59700000000004 84.06599999999999 M 470.82800000000003 147.69099999999997 C 458.45300000000003 147.69099999999997 449.124 137.74899999999997 449.124 124.56599999999997 C 449.124 111.32699999999997 458.13 101.72099999999998 470.54200000000003 101.72099999999998 C 482.99600000000004 101.72099999999998 492.389 111.66299999999998 492.389 124.85499999999998 C 492.389 138.09099999999998 483.321 147.69099999999997 470.82800000000003 147.69099999999997 M 470.82800000000003 84.06599999999997 C 447.562 84.06599999999997 429.336 101.98099999999997 429.336 124.85599999999997 C 429.336 147.48099999999997 447.437 165.20699999999997 470.54200000000003 165.20699999999997 C 493.89000000000004 165.20699999999997 512.173 147.35299999999995 512.173 124.56599999999997 C 512.173 101.85599999999997 494.016 84.06599999999997 470.828 84.06599999999997 M 561.855 85.64499999999997 L 542.86 85.64499999999997 L 542.86 66.223 C 542.86 65.526 542.298 64.958 541.6 64.958 L 524.34 64.958 C 523.642 64.958 523.0740000000001 65.526 523.0740000000001 66.223 L 523.0740000000001 85.645 L 514.7740000000001 85.645 C 514.0790000000001 85.645 513.5160000000001 86.213 513.5160000000001 86.91 L 513.5160000000001 101.745 C 513.5160000000001 102.44200000000001 514.0790000000001 103.01 514.7740000000001 103.01 L 523.0740000000001 103.01 L 523.0740000000001 141.398 C 523.0740000000001 156.911 530.7950000000001 164.778 546.023 164.778 C 552.215 164.778 557.3530000000001 163.499 562.195 160.754 C 562.5870000000001 160.534 562.832 160.10999999999999 562.832 159.659 L 562.832 145.531 C 562.8327999023014 145.09257116933267 562.6063497844345 144.68504075583482 562.2336379121886 144.45415909850587 C 561.8609260399427 144.22327744117692 561.3951911514141 144.20202403168625 561.003 144.398 C 557.678 146.071 554.4630000000001 146.843 550.87 146.843 C 545.332 146.843 542.86 144.32899999999998 542.86 138.69299999999998 L 542.86 103.01 L 561.856 103.01 C 562.554 103.01 563.115 102.44200000000001 563.115 101.745 L 563.115 86.91 C 563.115 86.213 562.554 85.645 561.856 85.645 M 628.038 85.72 L 628.038 83.335 C 628.038 76.317 630.7280000000001 73.18799999999999 636.763 73.18799999999999 C 640.363 73.18799999999999 643.253 73.90299999999999 646.49 74.98299999999999 C 646.8755072832561 75.11111915316422 647.2991183840046 75.04582646786243 647.628155212103 74.80757208992604 C 647.9571920402016 74.56931771198965 648.1514179618247 74.187236842538 648.15 73.78099999999999 L 648.15 59.233 C 648.1521772396359 58.67704519056792 647.7897199650873 58.185371084958334 647.2579999999999 58.022999999999996 C 643.838 57.004999999999995 639.4619999999999 55.959999999999994 632.91 55.959999999999994 C 616.9649999999999 55.959999999999994 608.538 64.94 608.538 81.916 L 608.538 85.569 L 600.246 85.569 C 599.5477152602003 85.57009187345813 598.9812981334018 86.13472219544028 598.978 86.833 L 598.978 101.745 C 598.978 102.441 599.548 103.01100000000001 600.246 103.01100000000001 L 608.538 103.01100000000001 L 608.538 162.223 C 608.538 162.92000000000002 609.101 163.488 609.797 163.488 L 627.058 163.488 C 627.755 163.488 628.323 162.92 628.323 162.223 L 628.323 103.01 L 644.441 103.01 L 669.1310000000001 162.20600000000002 C 666.3270000000001 168.42600000000002 663.5710000000001 169.663 659.8090000000001 169.663 C 656.767 169.663 653.565 168.75500000000002 650.2900000000001 166.964 C 649.9816730352047 166.7974632199734 649.6188620526008 166.76352866040648 649.2850000000001 166.87 C 648.955 166.98600000000002 648.6780000000001 167.231 648.5380000000001 167.55100000000002 L 642.6880000000001 180.38700000000003 C 642.408382993743 180.9890133089062 642.645907873685 181.70465561323357 643.2300000000001 182.02000000000004 C 649.3380000000001 185.32800000000003 654.8530000000002 186.74000000000004 661.6660000000002 186.74000000000004 C 674.4130000000001 186.74000000000004 681.4580000000002 180.80300000000003 687.6700000000002 164.83000000000004 L 717.6180000000002 87.44200000000004 C 717.7692244235416 87.0539963869688 717.7196356600626 86.61640313715193 717.4854225676582 86.27207791683387 C 717.2512094752539 85.92775269651581 716.8624277727292 85.72088151551009 716.4460000000001 85.71900000000004 L 698.4760000000001 85.71900000000004 C 697.9375842829006 85.71935533322352 697.4579065615635 86.05917714416243 697.2790000000001 86.56700000000004 L 678.87 139.15 L 658.706 86.53200000000001 C 658.5204195842902 86.04210168591194 658.0508701944204 85.71831571986951 657.527 85.71900000000001 z M 589.67 85.645 L 572.4069999999999 85.645 C 571.7109999999999 85.645 571.1429999999999 86.213 571.1429999999999 86.91 L 571.1429999999999 162.22199999999998 C 571.1429999999999 162.91899999999998 571.7109999999999 163.48699999999997 572.4069999999999 163.48699999999997 L 589.67 163.48699999999997 C 590.366 163.48699999999997 590.935 162.91899999999995 590.935 162.22199999999998 L 590.935 86.91 C 590.935 86.213 590.3649999999999 85.645 589.67 85.645 M 581.127 51.352999999999994 C 574.2879999999999 51.352999999999994 568.7389999999999 56.888999999999996 568.7389999999999 63.727 C 568.7389999999999 70.57 574.2879999999999 76.113 581.127 76.113 C 587.963 76.113 593.507 70.57 593.507 63.727000000000004 C 593.507 56.889 587.963 51.353 581.127 51.353 M 733.063 93.136 L 729.9 93.136 L 729.9 97.169 L 733.063 97.169 C 734.641 97.169 735.583 96.39699999999999 735.583 95.152 C 735.583 93.839 734.641 93.136 733.063 93.136 M 735.112 98.889 L 738.549 103.69999999999999 L 735.6519999999999 103.69999999999999 L 732.559 99.28799999999998 L 729.899 99.28799999999998 L 729.899 103.69999999999999 L 727.475 103.69999999999999 L 727.475 90.95 L 733.16 90.95 C 736.1229999999999 90.95 738.072 92.465 738.072 95.016 C 738.072 97.10600000000001 736.864 98.384 735.112 98.88900000000001 M 732.419 86.70500000000001 C 726.197 86.70500000000001 721.4879999999999 91.65200000000002 721.4879999999999 97.70900000000002 C 721.4879999999999 103.76300000000002 726.1629999999999 108.64400000000002 732.356 108.64400000000002 C 738.576 108.64400000000002 743.2909999999999 103.70000000000002 743.2909999999999 97.64000000000001 C 743.2909999999999 91.58500000000001 738.611 86.70500000000001 732.419 86.70500000000001 M 732.356 109.85900000000001 C 725.524 109.85900000000001 720.208 104.37200000000001 720.208 97.709 C 720.208 91.047 725.593 85.497 732.418 85.497 C 739.251 85.497 744.567 90.983 744.567 97.64 C 744.567 104.304 739.1850000000001 109.859 732.356 109.859" stroke-linecap="round" />
</g>
</svg>