<?xml version="1.0" encoding="UTF-8" standalone="no"?>
<!DOCTYPE svg PUBLIC "-//W3C//DTD SVG 1.1//EN" "http://www.w3.org/Graphics/SVG/1.1/DTD/svg11.dtd">
<!-- Created with Vectornator (http://vectornator.io/) -->
<svg height="100%" stroke-miterlimit="10" style="fill-rule:nonzero;clip-rule:evenodd;stroke-linecap:round;stroke-linejoin:round;" version="1.1" viewBox="0 0 841.995 595.35" width="100%" xml:space="preserve" xmlns="http://www.w3.org/2000/svg" xmlns:vectornator="http://vectornator.io" xmlns:xlink="http://www.w3.org/1999/xlink">
<defs/>
<g id="Layer-1" vectornator:layerName="Layer 1">
<path d="M200.244 312.923C197.167 314.251 204.493 308.388 205.672 307.382C212.453 301.598 219.193 295.768 225.938 289.942C242.857 275.327 260.554 261.956 278.768 248.997C327.751 214.146 378.826 182.89 431.116 153.303C435.873 150.612 440.722 148.086 445.539 145.503C449.542 143.356 474.827 125.901 482.246 129.233C483.638 129.859 479.363 136.1 479.058 136.705C471.441 151.789 463.317 166.785 455.059 181.53C438.47 211.148 423.865 242.193 409.326 272.869C390.058 313.522 372.801 353.511 357.975 395.787C357.667 396.666 347.07 425.662 343.44 424.032C337.795 421.496 323.48 375.698 322.023 370.734C312.706 338.985 309.733 305.867 300.592 274.087C295.207 255.366 287.783 237.169 281.829 218.622C270.194 182.377 257.328 146.458 244.494 110.632C243.92 109.027 234.265 80.7336 238.346 79.8153C241.526 79.0999 290.936 114.318 295.408 117.711C346.435 156.42 402.046 186.21 459.566 214.129C489.893 228.849 520.306 242.782 551.294 256.005C562.982 260.992 574.137 266.938 585.71 272.136C590.393 274.239 603.036 276.565 599.06 279.813C597.291 281.259 572.523 279.887 571.769 279.985C547.011 283.208 522.161 286.703 497.312 289.041C443.679 294.087 389.843 298.597 335.965 300.056C293.727 301.2 239.506 295.971 200.244 312.923Z" fill="none" opacity="1" stroke="#ffffff" stroke-linecap="round" stroke-linejoin="round" stroke-opacity="0.995495" stroke-width="6.71846" vectornator:layerName="Curve 1"/>
<path d="M359.16 234.207C356.379 235.886 355.645 237.32 355.587 240.666C355.381 252.59 370.403 238.082 363.933 235.175C357.93 232.479 351.262 243.083 354.858 247.898C360.753 255.79 376.557 244.786 371.886 238.412C364.92 228.905 349.47 241.098 353.602 250.694C358.394 261.821 376.718 252.505 373.378 242.946C369.152 230.855 346.666 238.356 351.143 250.933C355.33 262.698 375.179 257.294 373.617 245.405C371.704 230.85 343.776 239.411 347.958 253.534C351.604 265.847 374.732 261.968 372.361 248.201C370.077 234.936 347.416 238.616 349.02 252.667C350.949 269.568 375.951 260.339 372.507 246.754C368.898 232.523 340.229 231.747 344.393 250.253C348.661 269.222 380.297 261.112 371.834 243.764C363.961 227.625 340.324 236.183 344.053 253.628C348.77 275.698 379.364 259.611 373.475 241.981C368.493 227.068 340.462 242.347 342.894 255.459C346.292 273.782 374.631 260.03 375.497 246.081C376.887 223.679 332.151 232.639 341.69 252.903C349.96 270.468 380.52 261.054 381.623 243.29C382.917 222.436 338.44 224.809 343.574 248.709C349.313 275.426 393.507 256.258 385.775 235.915C378.337 216.345 343.738 230.843 343.671 247.745C343.575 272.13 393.501 255.56 384.568 238.229C370.544 211.023 336.249 255.28 359.728 247.902" fill="none" opacity="1" stroke="#10c06c" stroke-linecap="round" stroke-linejoin="round" stroke-width="6.71846" vectornator:layerName="Curve 2"/>
<path d="M372.843 248.249L372.94 247.285L373.568 245.887L373.665 244.923L372.75 244.344L371.785 244.246L372.798 243.861L371.688 245.211L371.109 246.126" fill="none" opacity="1" stroke="#10c06c" stroke-linecap="round" stroke-linejoin="round" stroke-width="6.71846" vectornator:layerName="Curve 3"/>
<path d="M296.492 150.452C297.569 155.239 296.621 152.577 300.102 158.121" fill="none" opacity="1" stroke="#10c06c" stroke-linecap="round" stroke-linejoin="round" stroke-width="6.71846" vectornator:layerName="Curve 4"/>
<path d="M442.003 166.09C437.437 168.846 428.43 175.121 427.864 180.737" fill="none" opacity="1" stroke="#10c06c" stroke-linecap="round" stroke-linejoin="round" stroke-width="6.71846" vectornator:layerName="Curve 5"/>
<path d="M348.186 333.433C347.681 338.446 347.155 343.44 347.645 348.476" fill="none" opacity="1" stroke="#10c06c" stroke-linecap="round" stroke-linejoin="round" stroke-width="6.71846" vectornator:layerName="Curve 6"/>
<path d="M455.526 263.887C462.692 261.826 469.776 260.147 476.651 257.249" fill="none" opacity="1" stroke="#10c06c" stroke-linecap="round" stroke-linejoin="round" stroke-width="6.71846" vectornator:layerName="Curve 7"/>
<path d="M255.304 288.518C263.072 285.565 270.758 282.329 278.215 278.651" fill="none" opacity="1" stroke="#10c06c" stroke-linecap="round" stroke-linejoin="round" stroke-width="6.71846" vectornator:layerName="Curve 8"/>
<path d="M373.381 238.076C368.788 229.414 351.877 246.696 359.096 254.17C366.505 261.839 388.267 240.939 381.918 235.527C371.257 226.437 344.644 240.249 351.236 254.839C357.64 269.013 387.919 249.651 377.481 236.054C368.393 224.213 345.584 240.619 352.01 251.994C357.878 262.382 380.517 255.776 378.199 243.432C376.008 231.763 353.232 239.175 357.702 248.672C359.755 253.032 375.388 253.655 371.64 245.693C369.789 241.762 362.331 251.069 362.135 253.015C361.779 256.543 370.023 247.521 368.362 244.388C367.807 243.343 364.697 244.835 364.407 244.964C361.48 246.267 361.725 247.598 364.359 245.446C364.595 245.253 365.137 243.63 365.951 244.145C366.53 244.511 364.339 252.095 364.064 253.209C363.124 257.009 364.685 250.614 363.342 250.701C359.007 250.982 351.848 259.817 347.521 257.874C341.157 255.015 347.475 218.621 367.259 235.998C369.703 238.144 372.716 242.392 373.086 245.839C374.223 256.421 350.085 259.665 346.418 249.483C342.172 237.692 359.742 215.855 371.075 227.128C382.451 238.444 362.949 265.672 352.249 254.454C340.381 242.01 363.408 226.637 374.783 233.833C377.675 235.663 368.218 236.418 364.8 236.237C359.73 235.968 342.84 234.353 346.374 245.095C352.168 262.711 382.555 250.388 373.284 239.04C357.022 219.132 336.676 253.652 361.701 252.484C366.836 252.244 369.995 251.709 372.94 247.285C379.716 237.107 347.769 219.207 348.549 238.008C349.379 258.016 382.621 254.302 376.999 236.005C372.74 222.143 346.03 232.869 349.846 244.471C354.292 257.987 386.329 249.482 379.698 238.225C374.841 229.979 346.502 227.431 350.571 242.108C353.868 254 379.253 253.967 379.021 240.105C378.851 229.868 351.195 224.399 348.597 237.526C344.846 256.483 378.381 255.629 373.284 239.04C366.155 215.837 334.534 237.359 351.431 252.91C359.021 259.896 372.994 250.103 371.643 240.823C369.003 222.685 332.771 234.229 341.982 250.01C347.305 259.129 378.053 266.861 377.085 249.651C376.257 234.921 338.448 227.452 343.959 249.722C349.996 274.116 383.908 266.821 378.248 242.949C373.532 223.063 341.713 228.576 344.587 248.324C347.007 264.95 374.793 256.988 376.753 243.286C378.937 228.013 338.08 223.593 342.614 243.742C345.413 256.184 373.283 256.328 372.559 241.402C371.72 224.104 332.73 223.982 340.106 244.463C346.389 261.909 380.346 252.37 370.488 237.784C358.069 219.406 333.364 234.828 347.237 251.026C356.994 262.419 384.224 249.475 376.035 235.908C367.951 222.514 339.561 228.088 348.882 244.373C355.487 255.914 381.701 249.628 374.106 235.713C368.067 224.649 341.14 221.489 347.005 238.827C351.946 253.433 375.641 245.85 369.771 230.406C361.964 209.866 343.913 235.985 353.557 246.306C361.085 254.362 378.888 238.255 371.987 232.578C364.734 226.61 349.287 230.992 351.053 242.157C352.806 253.238 376.637 252.359 376.031 240.778C375.236 225.566 356.82 239.816 362.434 240.382" fill="none" opacity="1" stroke="#10c06c" stroke-linecap="round" stroke-linejoin="round" stroke-width="6.71846" vectornator:layerName="Curve 9"/>
</g>
</svg>
