<?xml version="1.0" encoding="UTF-8" standalone="no"?>
<!DOCTYPE svg PUBLIC "-//W3C//DTD SVG 1.1//EN" "http://www.w3.org/Graphics/SVG/1.1/DTD/svg11.dtd">
<!-- Created with Vectornator (http://vectornator.io/) -->
<svg height="100%" stroke-miterlimit="10" style="fill-rule:nonzero;clip-rule:evenodd;stroke-linecap:round;stroke-linejoin:round;" version="1.1" viewBox="0 0 841.995 595.35" width="100%" xml:space="preserve" xmlns="http://www.w3.org/2000/svg" xmlns:vectornator="http://vectornator.io" xmlns:xlink="http://www.w3.org/1999/xlink">
<defs/>
<g id="Layer-1" vectornator:layerName="Layer 1">
<path d="M510.051 66.946C501.766 64.1845 497.948 76.1359 497.226 81.9084C495.289 97.4063 509.66 115.021 526.296 106.703C540.202 99.7502 533.61 83.238 525.013 74.6409C520.237 69.865 515.13 67.8111 508.768 69.0835C506.79 69.479 504.182 71.1049 502.783 72.5034C502.333 72.9541 501.643 74.7834 501.928 74.2134C502.157 73.757 503.12 71.6525 503.638 71.2209C507.763 67.7837 517.026 69.014 521.166 71.6484C523.762 73.3004 523.722 76.6242 525.441 78.9159C527.379 81.5003 529.202 81.7288 529.716 85.3283C530.272 89.2209 529.181 92.7066 528.433 96.4433C527.934 98.939 527.239 102.121 525.013 103.711C518.214 108.567 503.934 99.7078 504.493 91.3133C504.767 87.2066 510.184 82.5006 514.326 83.1909C516.196 83.5025 518.801 85.6051 520.738 85.3283C524.555 84.7831 518.419 79.6873 515.608 80.1984C506.9 81.7818 506.392 100.127 516.463 99.0083C523.034 98.2782 531.444 87.0544 525.013 81.4809C516.113 73.7675 497.991 84.6531 507.058 93.0233C513.463 98.9353 526.425 92.558 525.013 83.6184C523.597 74.6517 511.714 77.0156 507.913 82.3359C501.635 91.1251 522.609 98.311 524.586 84.4734C524.707 83.627 525.001 82.6558 524.586 81.9084C521.245 75.895 513.023 87.401 512.616 90.4583C511.383 99.7048 526.738 97.7997 528.861 87.8933C530.45 80.4759 508.728 79.0777 510.051 73.7859C511.363 68.5364 522.932 71.2585 525.441 72.9309C525.52 72.9835 528.742 75.6144 528.006 76.3509C524.7 79.6567 502.85 77.7954 504.493 71.2209C505.521 67.1096 512.818 66.946 516.036 66.946C524.682 66.946 533.798 70.1847 535.273 79.7709C535.905 83.8766 533.641 86.5017 531.426 89.6033C523.331 100.936 506.331 91.3013 502.783 79.7709C498.778 66.7542 520.348 70.0871 527.151 71.2209C529.337 71.5853 532.919 71.2192 534.846 72.5034C542.404 77.5421 538.416 93.1286 536.983 100.291C536.002 105.197 536.959 110.693 536.128 115.681C533.012 134.378 520.155 157.273 505.348 169.118C500.993 172.602 494.208 183.733 487.394 182.37C484.599 181.811 487.682 179.268 488.676 178.523C494.327 174.284 499.458 170.243 503.211 163.988C505.335 160.448 508.404 157.063 510.906 153.728C517.114 145.45 521.656 128.987 523.303 119.101C523.423 118.381 521.627 110.551 522.876 110.551C525.7 110.551 524.189 126.786 523.731 128.506C523.402 129.737 522.922 132.827 522.021 131.926C521.702 131.607 522.247 131.046 522.448 130.643C524.326 126.888 526.551 123.293 528.433 119.528C528.861 118.673 529.328 117.837 529.716 116.963C529.899 116.551 530.253 115.243 530.143 115.681C528.926 120.548 527.515 125.339 526.296 130.216C526.153 130.786 526.456 131.926 525.868 131.926C525.404 131.926 527.893 124.972 528.006 124.658C529.201 121.312 533.066 114.618 531.853 110.978C529.531 104.01 530.836 115.106 531.426 115.253C533.106 115.673 535.876 106.364 533.991 105.421C530.205 103.528 533.913 113.193 534.846 112.261C535.305 111.801 533.651 107.307 534.846 109.696" fill="none" opacity="1" stroke="#ffffff" stroke-linecap="round" stroke-linejoin="round" stroke-opacity="0.995495" stroke-width="10.4289" vectornator:layerName="Curve 1"/>
</g>
</svg>
